<svg width="32" height="33" viewBox="0 0 32 33" fill="none" xmlns="http://www.w3.org/2000/svg">
<path d="M29.2934 24.94C29.2934 25.42 29.1867 25.9133 28.9601 26.3933C28.7334 26.8733 28.4401 27.3266 28.0534 27.7533C27.4001 28.4733 26.6801 28.9933 25.8667 29.3266C25.0667 29.66 24.2001 29.8333 23.2667 29.8333C21.9067 29.8333 20.4534 29.5133 18.9201 28.86C17.3867 28.2066 15.8534 27.3266 14.3334 26.22C12.8001 25.1 11.3467 23.86 9.96008 22.4866C8.58675 21.1 7.34675 19.6466 6.24008 18.1266C5.14675 16.6066 4.26675 15.0866 3.62675 13.58C2.98675 12.06 2.66675 10.6066 2.66675 9.21996C2.66675 8.31329 2.82675 7.44663 3.14675 6.64663C3.46675 5.83329 3.97341 5.08663 4.68008 4.41996C5.53341 3.57996 6.46675 3.16663 7.45341 3.16663C7.82675 3.16663 8.20008 3.24663 8.53341 3.40663C8.88008 3.56663 9.18675 3.80663 9.42675 4.15329L12.5201 8.51329C12.7601 8.84663 12.9334 9.15329 13.0534 9.44663C13.1734 9.72663 13.2401 10.0066 13.2401 10.26C13.2401 10.58 13.1467 10.9 12.9601 11.2066C12.7867 11.5133 12.5334 11.8333 12.2134 12.1533L11.2001 13.2066C11.0534 13.3533 10.9867 13.5266 10.9867 13.74C10.9867 13.8466 11.0001 13.94 11.0267 14.0466C11.0667 14.1533 11.1067 14.2333 11.1334 14.3133C11.3734 14.7533 11.7867 15.3266 12.3734 16.02C12.9734 16.7133 13.6134 17.42 14.3067 18.1266C15.0267 18.8333 15.7201 19.4866 16.4267 20.0866C17.1201 20.6733 17.6934 21.0733 18.1467 21.3133C18.2134 21.34 18.2934 21.38 18.3867 21.42C18.4934 21.46 18.6001 21.4733 18.7201 21.4733C18.9467 21.4733 19.1201 21.3933 19.2667 21.2466L20.2801 20.2466C20.6134 19.9133 20.9334 19.66 21.2401 19.5C21.5467 19.3133 21.8534 19.22 22.1867 19.22C22.4401 19.22 22.7067 19.2733 23.0001 19.3933C23.2934 19.5133 23.6001 19.6866 23.9334 19.9133L28.3467 23.0466C28.6934 23.2866 28.9334 23.5666 29.0801 23.9C29.2134 24.2333 29.2934 24.5666 29.2934 24.94Z" stroke="#50B850" stroke-width="1.5" stroke-miterlimit="10"/>
<path d="M24.6667 12.4999C24.6667 11.6999 24.04 10.4733 23.1067 9.47325C22.2533 8.55325 21.12 7.83325 20 7.83325" stroke="#50B850" stroke-width="1.5" stroke-linecap="round" stroke-linejoin="round"/>
<path d="M29.3333 12.5C29.3333 7.33996 25.16 3.16663 20 3.16663" stroke="#50B850" stroke-width="1.5" stroke-linecap="round" stroke-linejoin="round"/>
</svg>
