<svg width="64" height="64" viewBox="0 0 64 64" fill="none" xmlns="http://www.w3.org/2000/svg">
<path fill-rule="evenodd" clip-rule="evenodd" d="M56.0516 13.1974H44.5788C44.1664 13.1974 43.829 12.86 43.829 12.4476V0.787352C43.829 0.487411 44.0164 0.187469 44.3164 0.0749913C44.5788 -0.0374867 44.9163 0.0374987 45.1412 0.262455L56.5765 11.9227C56.8014 12.1476 56.8389 12.4476 56.7265 12.7475C56.614 13.01 56.3515 13.1974 56.0516 13.1974Z" fill="white"/>
<path fill-rule="evenodd" clip-rule="evenodd" d="M9.52315 63.9625C8.2484 63.9625 7.19861 62.9127 7.19861 61.6379V2.32453C7.19861 1.04978 8.2484 0.0374756 9.52315 0.0374756H42.4792C42.4042 0.262432 42.3667 0.52488 42.3667 0.787329V12.4476C42.3667 13.6848 43.3415 14.6971 44.5788 14.6971H56.0516C56.314 14.6971 56.5765 14.6596 56.8014 14.5846V61.6379C56.8014 62.9127 55.7516 63.9625 54.4769 63.9625H9.52315ZM51.6274 23.0955H26.8448C26.4324 23.0955 26.0949 22.758 26.0949 22.3456C26.0949 21.9332 26.4324 21.5958 26.8448 21.5958H51.6274C52.0399 21.5958 52.3773 21.9332 52.3773 22.3456C52.3773 22.758 52.0399 23.0955 51.6274 23.0955ZM15.0721 57.6262C14.8846 57.6262 14.6597 57.5512 14.5472 57.4013L11.8102 54.7018C11.5478 54.4019 11.5478 53.9519 11.8102 53.652C12.1101 53.3521 12.5976 53.3521 12.8975 53.652L15.0721 55.8266L19.9461 50.915C20.2461 50.6151 20.7335 50.6151 21.0334 50.915C21.3333 51.215 21.3333 51.6649 21.0334 51.9648L15.597 57.4013C15.447 57.5512 15.2595 57.6262 15.0721 57.6262ZM51.6274 57.0638H26.8448C26.4324 57.0638 26.0949 56.7264 26.0949 56.314C26.0949 55.9016 26.4324 55.5641 26.8448 55.5641H51.6274C52.0399 55.5641 52.3773 55.9016 52.3773 56.314C52.3773 56.7264 52.0399 57.0638 51.6274 57.0638ZM51.6274 52.7522H26.8448C26.4324 52.7522 26.0949 52.4147 26.0949 52.0023C26.0949 51.5899 26.4324 51.2525 26.8448 51.2525H51.6274C52.0399 51.2525 52.3773 51.5899 52.3773 52.0023C52.3773 52.4147 52.0399 52.7522 51.6274 52.7522ZM15.0721 42.7791C14.8471 42.7791 14.6597 42.7041 14.5472 42.5917L11.8102 39.8922C11.5478 39.5923 11.5478 39.1048 11.8102 38.8049C12.1101 38.505 12.5976 38.505 12.8975 38.8049L15.0721 40.9795L19.9461 36.0679C20.2461 35.8055 20.7335 35.8055 21.0334 36.0679C21.3333 36.3679 21.3333 36.8553 21.0334 37.1552L15.597 42.5917C15.447 42.7041 15.2595 42.7791 15.0721 42.7791ZM51.6274 42.2542H26.8448C26.4324 42.2542 26.0949 41.9168 26.0949 41.5044C26.0949 41.092 26.4324 40.7545 26.8448 40.7545H51.6274C52.0399 40.7545 52.3773 41.092 52.3773 41.5044C52.3773 41.9168 52.0399 42.2542 51.6274 42.2542ZM51.6274 37.9051H26.8448C26.4324 37.9051 26.0949 37.5676 26.0949 37.1552C26.0949 36.7428 26.4324 36.4054 26.8448 36.4054H51.6274C52.0399 36.4054 52.3773 36.7428 52.3773 37.1552C52.3773 37.5676 52.0399 37.9051 51.6274 37.9051ZM15.0721 27.9695C14.8471 27.9695 14.6597 27.8945 14.5472 27.7446L11.8102 25.0451C11.5478 24.7452 11.5478 24.2952 11.8102 23.9953C12.1101 23.6954 12.5976 23.6954 12.8975 23.9953L15.0721 26.1699L19.9461 21.2583C20.2461 20.9584 20.7335 20.9584 21.0334 21.2583C21.3333 21.5583 21.3333 22.0082 21.0334 22.3081L15.597 27.7446C15.447 27.8945 15.2595 27.9695 15.0721 27.9695ZM51.6274 27.4071H26.8448C26.4324 27.4071 26.0949 27.0697 26.0949 26.6573C26.0949 26.2449 26.4324 25.9074 26.8448 25.9074H51.6274C52.0399 25.9074 52.3773 26.2449 52.3773 26.6573C52.3773 27.0697 52.0399 27.4071 51.6274 27.4071ZM36.7428 7.53601H12.785C12.3726 7.53601 12.0352 7.19858 12.0352 6.78616C12.0352 6.37374 12.3726 6.0363 12.785 6.0363H36.7428C37.1553 6.0363 37.4927 6.37374 37.4927 6.78616C37.4927 7.19858 37.1553 7.53601 36.7428 7.53601ZM36.7428 10.7604H12.785C12.3726 10.7604 12.0352 10.4229 12.0352 10.0105C12.0352 9.59811 12.3726 9.26067 12.785 9.26067H36.7428C37.1553 9.26067 37.4927 9.59811 37.4927 10.0105C37.4927 10.4229 37.1553 10.7604 36.7428 10.7604Z" fill="white"/>
</svg>
