<svg width="32" height="33" viewBox="0 0 32 33" fill="none" xmlns="http://www.w3.org/2000/svg">
<g clip-path="url(#clip0_3_453)">
<path fill-rule="evenodd" clip-rule="evenodd" d="M28.0258 6.67226H22.2894C22.0832 6.67226 21.9332 6.50354 21.9332 6.29733V0.467223C21.9332 0.317253 22.0082 0.167282 22.1582 0.111043C22.2894 0.054804 22.4581 0.0922967 22.5706 0.204775L28.2882 6.03489C28.4007 6.14736 28.4195 6.29733 28.3632 6.44731C28.307 6.57853 28.1758 6.67226 28.0258 6.67226ZM22.6643 5.92241H27.126L22.6643 1.38579V5.92241Z" fill="white"/>
<path fill-rule="evenodd" clip-rule="evenodd" d="M4.76158 32.0548C4.1242 32.0548 3.5993 31.5299 3.5993 30.8925V1.23581C3.5993 0.598436 4.1242 0.0922852 4.76158 0.0922852H22.2894C22.5144 0.0922852 22.6643 0.261002 22.6643 0.467212V5.9224H28.0258C28.232 5.9224 28.4007 6.09111 28.4007 6.29732V30.8925C28.4007 31.5299 27.8758 32.0548 27.2384 32.0548H4.76158ZM4.76158 0.842139C4.53662 0.842139 4.34916 1.01086 4.34916 1.23581V30.8925C4.34916 31.1175 4.53662 31.3049 4.76158 31.3049H27.2384C27.4634 31.3049 27.6509 31.1175 27.6509 30.8925V6.67225H22.2894C22.0832 6.67225 21.9145 6.50353 21.9145 6.29732V0.842139H4.76158Z" fill="white"/>
<path fill-rule="evenodd" clip-rule="evenodd" d="M25.5513 12.7087H6.44878C6.24257 12.7087 6.07385 12.54 6.07385 12.3337V10.3091C6.07385 10.1029 6.24257 9.93421 6.44878 9.93421H25.5513C25.7575 9.93421 25.9262 10.1029 25.9262 10.3091V12.3337C25.9262 12.54 25.7575 12.7087 25.5513 12.7087ZM6.8237 11.9588H25.1764V10.6841H6.8237V11.9588ZM11.3041 21.0133H6.18633C5.98012 21.0133 5.8114 20.8446 5.8114 20.6384V16.1205C5.8114 15.9143 5.98012 15.7456 6.18633 15.7456H11.3041C11.5103 15.7456 11.679 15.9143 11.679 16.1205V20.6384C11.679 20.8446 11.5103 21.0133 11.3041 21.0133ZM6.56125 20.2634H10.9292V16.4954H6.56125V20.2634ZM11.3041 28.0432H6.18633C5.98012 28.0432 5.8114 27.8745 5.8114 27.6682V23.1504C5.8114 22.9254 5.98012 22.7755 6.18633 22.7755H11.3041C11.5103 22.7755 11.679 22.9254 11.679 23.1504V27.6682C11.679 27.8745 11.5103 28.0432 11.3041 28.0432ZM6.56125 27.2933H10.9292V23.5253H6.56125V27.2933ZM24.9327 17.7514H13.5349C13.3287 17.7514 13.16 17.6015 13.16 17.3765C13.16 17.1703 13.3287 17.0203 13.5349 17.0203H24.9327C25.1389 17.0203 25.2888 17.1703 25.2888 17.3765C25.2888 17.6015 25.1389 17.7514 24.9327 17.7514ZM24.9327 19.7573H13.5349C13.3287 19.7573 13.16 19.5886 13.16 19.3824C13.16 19.1762 13.3287 19.0074 13.5349 19.0074H24.9327C25.1389 19.0074 25.2888 19.1762 25.2888 19.3824C25.2888 19.5886 25.1389 19.7573 24.9327 19.7573ZM24.9327 24.7813H13.5349C13.3287 24.7813 13.16 24.6126 13.16 24.4064C13.16 24.2002 13.3287 24.0315 13.5349 24.0315H24.9327C25.1389 24.0315 25.2888 24.2002 25.2888 24.4064C25.2888 24.6126 25.1389 24.7813 24.9327 24.7813ZM24.9327 26.7684H13.5349C13.3287 26.7684 13.16 26.5997 13.16 26.3935C13.16 26.1873 13.3287 26.0186 13.5349 26.0186H24.9327C25.1389 26.0186 25.2888 26.1873 25.2888 26.3935C25.2888 26.5997 25.1389 26.7684 24.9327 26.7684ZM18.9713 3.84165H6.99242C6.78621 3.84165 6.61749 3.67293 6.61749 3.46672C6.61749 3.26051 6.78621 3.0918 6.99242 3.0918H18.9713C19.1775 3.0918 19.3463 3.26051 19.3463 3.46672C19.3463 3.67293 19.1775 3.84165 18.9713 3.84165ZM18.9713 5.45384H6.99242C6.78621 5.45384 6.61749 5.28512 6.61749 5.07891C6.61749 4.8727 6.78621 4.70398 6.99242 4.70398H18.9713C19.1775 4.70398 19.3463 4.8727 19.3463 5.07891C19.3463 5.28512 19.1775 5.45384 18.9713 5.45384Z" fill="white"/>
<path fill-rule="evenodd" clip-rule="evenodd" d="M8.3796 19.5135C8.26712 19.5135 8.17339 19.4573 8.09841 19.401L7.3673 18.6512C7.21733 18.5012 7.21733 18.2575 7.3673 18.1263C7.49852 17.9763 7.74223 17.9763 7.8922 18.1263L8.3796 18.595L9.59811 17.3577C9.74808 17.2265 9.99179 17.2265 10.1418 17.3577C10.273 17.5077 10.273 17.7514 10.1418 17.9013L8.64205 19.401C8.56707 19.4573 8.47333 19.5135 8.3796 19.5135ZM8.3796 26.5247C8.26712 26.5247 8.17339 26.4872 8.09841 26.4122L7.3673 25.6811C7.21733 25.5311 7.21733 25.2874 7.3673 25.1374C7.49852 25.0062 7.74223 25.0062 7.8922 25.1374L8.3796 25.6248L9.59811 24.3876C9.74808 24.2376 9.99179 24.2376 10.1418 24.3876C10.273 24.5375 10.273 24.7812 10.1418 24.9125L8.64205 26.4122C8.56707 26.4872 8.47333 26.5247 8.3796 26.5247Z" fill="white"/>
</g>
<defs>
<clipPath id="clip0_3_453">
<rect width="32" height="32" fill="white" transform="translate(0 0.0734863)"/>
</clipPath>
</defs>
</svg>
