<svg width="81" height="80" viewBox="0 0 81 80" fill="none" xmlns="http://www.w3.org/2000/svg">
<g clip-path="url(#clip0_3_1310)">
<path d="M80.1253 26.7303L64.6098 11.2146C64.4911 11.096 64.3503 11.0018 64.1953 10.9376C64.0402 10.8734 63.8741 10.8403 63.7063 10.8403C63.5385 10.8403 63.3723 10.8734 63.2173 10.9376C63.0623 11.0018 62.9214 11.096 62.8028 11.2146L55.045 18.9724C54.8054 19.212 54.6708 19.537 54.6708 19.8758C54.6708 20.2147 54.8054 20.5397 55.045 20.7793L55.8189 21.5532L54.0405 23.3313C52.8859 24.4853 51.0945 24.8003 49.583 24.1142C48.1658 23.471 46.5903 23.1311 45.0266 23.1311C43.1801 23.1299 41.3631 23.5938 39.7432 24.48C39.0694 24.3138 38.378 24.2297 37.684 24.2296C36.6806 24.2287 35.6849 24.4038 34.742 24.7467C33.234 25.2945 31.6176 24.955 30.5228 23.8605L27.3295 20.6671L27.7098 20.2868C27.9494 20.0472 28.084 19.7222 28.084 19.3833C28.084 19.0445 27.9494 18.7195 27.7098 18.4799L19.9521 10.7221C19.8334 10.6035 19.6926 10.5093 19.5375 10.4451C19.3825 10.3809 19.2164 10.3478 19.0486 10.3478C18.8808 10.3478 18.7146 10.3809 18.5596 10.4451C18.4045 10.5093 18.2637 10.6035 18.145 10.7221L0.874209 27.993C0.634643 28.2326 0.500061 28.5576 0.500061 28.8964C0.500061 29.2352 0.634643 29.5602 0.874209 29.7998L8.63182 37.5576C8.75046 37.6763 8.89132 37.7705 9.04636 37.8347C9.2014 37.899 9.36758 37.932 9.53541 37.932C9.70323 37.932 9.86942 37.899 10.0245 37.8347C10.1795 37.7705 10.3204 37.6763 10.439 37.5576L10.9017 37.0949L13.1538 39.3471C13.7221 39.9154 14.0988 40.6249 14.243 41.3988C14.9908 45.4118 16.9127 49.06 19.8008 51.9497L20.225 52.3739C19.4104 53.2319 18.9622 54.3497 18.9622 55.5372C18.9622 56.7655 19.4407 57.9203 20.3091 58.7889C21.2057 59.6854 22.383 60.1336 23.5608 60.1336C23.6375 60.1336 23.7139 60.1315 23.7906 60.1276C23.7285 61.3806 24.1747 62.6542 25.1294 63.6092C25.998 64.4778 27.1528 64.956 28.3811 64.956C28.4153 64.956 28.4494 64.9543 28.4836 64.9535C28.4573 66.1643 28.904 67.3835 29.8259 68.3055C30.6945 69.1743 31.8493 69.6524 33.0778 69.6524C34.306 69.6524 35.4607 69.174 36.3295 68.3055C36.4026 68.2324 36.4715 68.1568 36.5388 68.0802C36.9935 68.2394 37.4716 68.321 37.9532 68.3218C39.1021 68.3218 40.1815 67.8741 40.9909 67.0621C41.415 66.6392 41.7456 66.132 41.9613 65.5732L42.0921 65.704C42.9294 66.5413 44.0293 66.9601 45.1291 66.9601C46.2289 66.9601 47.3288 66.5413 48.1661 65.704C48.6043 65.2673 48.9425 64.7407 49.1574 64.1606C49.8912 64.6934 50.7751 64.9798 51.682 64.9787C52.7819 64.9787 53.8823 64.5601 54.7205 63.7231C55.5315 62.912 55.9783 61.8329 55.9783 60.6848C55.9783 60.3379 55.9367 59.9978 55.8575 59.6689C56.6758 59.5026 57.4276 59.1009 58.0309 58.4968C58.842 57.6858 59.2887 56.6072 59.2887 55.4598C59.2887 54.5559 59.0103 53.6955 58.4961 52.9739L59.5211 51.9489C62.4428 49.0258 64.3729 45.3318 65.1031 41.266C65.2254 40.5852 65.5626 39.9529 66.0785 39.4368L69.8907 35.6246L70.5608 36.2948C70.6794 36.4136 70.8202 36.5079 70.9753 36.5721C71.1303 36.6363 71.2966 36.6692 71.4644 36.669C71.6323 36.6692 71.7985 36.6363 71.9536 36.5721C72.1086 36.5078 72.2495 36.4136 72.368 36.2948L80.1258 28.537C80.3653 28.2974 80.4998 27.9724 80.4997 27.6336C80.4996 27.2948 80.3649 26.9699 80.1253 26.7303ZM9.53541 34.8475L3.58451 28.8966L19.0483 13.4327L24.9994 19.3836L9.53541 34.8475ZM25.0055 56.9823C24.2091 57.7786 22.913 57.7789 22.116 56.9823C21.9256 56.793 21.7748 56.5679 21.672 56.3198C21.5693 56.0718 21.5168 55.8059 21.5175 55.5375C21.5175 54.9919 21.7302 54.4788 22.1161 54.0928C22.3057 53.903 22.5309 53.7525 22.7788 53.6499C23.0267 53.5474 23.2924 53.4949 23.5606 53.4953C24.0838 53.4953 24.6072 53.6945 25.0053 54.0928C25.8019 54.8894 25.8019 56.1856 25.0055 56.9823ZM29.8254 61.8023C29.6362 61.9927 29.4111 62.1436 29.1631 62.2464C28.9151 62.3491 28.6492 62.4016 28.3808 62.4007C28.1124 62.4014 27.8465 62.3489 27.5986 62.2462C27.3506 62.1435 27.1255 61.9926 26.9362 61.8023C26.1395 61.0057 26.1395 59.7095 26.9362 58.9128C27.1258 58.7229 27.351 58.5724 27.599 58.4699C27.8469 58.3673 28.1126 58.3148 28.3809 58.3153C28.9039 58.3153 29.4273 58.5145 29.8254 58.9128C30.6223 59.7093 30.6223 61.0057 29.8254 61.8023ZM34.522 66.4987C34.3327 66.689 34.1076 66.8399 33.8597 66.9426C33.6117 67.0453 33.3458 67.0978 33.0775 67.0971C32.809 67.0978 32.5432 67.0453 32.2952 66.9426C32.0472 66.8399 31.8221 66.689 31.6328 66.4987C30.8361 65.7021 30.8361 64.4059 31.6328 63.6092C31.8224 63.4193 32.0476 63.2688 32.2955 63.1663C32.5434 63.0637 32.8092 63.0112 33.0775 63.0117C33.6004 63.0117 34.1239 63.2109 34.522 63.6092C35.3187 64.4059 35.3187 65.7021 34.522 66.4987ZM56.2231 56.6906C55.8947 57.0194 55.458 57.2005 54.9936 57.2005C54.5292 57.2005 54.0925 57.0194 53.7634 56.6898L41.3682 44.2974C41.1275 44.0628 40.8041 43.9325 40.468 43.9347C40.132 43.9369 39.8103 44.0714 39.5727 44.3091C39.3351 44.5467 39.2007 44.8685 39.1986 45.2045C39.1965 45.5406 39.3269 45.864 39.5615 46.1046L52.9131 59.4548C53.0752 59.616 53.2036 59.8076 53.2911 60.0188C53.3785 60.2299 53.4232 60.4563 53.4225 60.6848C53.4225 61.1504 53.2416 61.5878 52.9136 61.9157C52.2344 62.5943 51.1299 62.5945 50.4517 61.9162L48.1992 59.6637C48.1867 59.6508 48.1746 59.6376 48.1616 59.6248C48.1578 59.6211 48.1536 59.6178 48.1497 59.614L37.7956 49.2599C37.5559 49.0203 37.2309 48.8857 36.892 48.8857C36.5532 48.8857 36.2282 49.0203 35.9885 49.2599C35.8699 49.3785 35.7757 49.5193 35.7115 49.6744C35.6473 49.8294 35.6143 49.9955 35.6143 50.1633C35.6143 50.3311 35.6473 50.4972 35.7115 50.6523C35.7757 50.8073 35.8699 50.9481 35.9885 51.0667L46.376 61.454C46.6929 61.7781 46.8698 62.2137 46.8683 62.667C46.8683 63.1317 46.6872 63.5685 46.3588 63.897C45.681 64.5753 44.5774 64.5753 43.899 63.897L32.6357 52.6336C32.5171 52.5149 32.3762 52.4208 32.2212 52.3566C32.0662 52.2924 31.9 52.2593 31.7322 52.2593C31.5644 52.2593 31.3983 52.2924 31.2432 52.3566C31.0882 52.4208 30.9474 52.5149 30.8287 52.6336C30.7101 52.7522 30.6159 52.8931 30.5517 53.0481C30.4875 53.2031 30.4544 53.3692 30.4544 53.537C30.4544 53.7048 30.4875 53.871 30.5517 54.026C30.6159 54.181 30.7101 54.3218 30.8287 54.4405L39.1777 62.7896C39.1801 62.792 39.182 62.7946 39.1845 62.7968C39.3464 62.9576 39.4747 63.149 39.5621 63.3598C39.6494 63.5706 39.6941 63.7966 39.6934 64.0248C39.6934 64.4893 39.5124 64.9262 39.1826 65.256C39.0216 65.4182 38.83 65.5468 38.6189 65.6343C38.4078 65.7219 38.1814 65.7666 37.9529 65.7659C37.8423 65.7656 37.7319 65.7549 37.6232 65.734C37.8299 64.3414 37.3988 62.8715 36.3292 61.8017C35.4606 60.9332 34.3057 60.4548 33.0775 60.4548C33.0432 60.4548 33.0092 60.4565 32.975 60.4573C33.0012 59.2465 32.5546 58.0273 31.6326 57.1053C30.7639 56.2369 29.6092 55.7584 28.3808 55.7584C28.3039 55.7584 28.2275 55.7603 28.1512 55.7641C28.2126 54.5119 27.7664 53.2394 26.8122 52.285C25.6506 51.1236 24.0178 50.7156 22.5241 51.0589L21.6078 50.1427C19.086 47.6197 17.4082 44.4341 16.7552 40.9302C16.516 39.647 15.8955 38.4745 14.961 37.5398L12.7087 35.2875L25.5227 22.4735L28.7161 25.6669C29.9436 26.8944 31.6148 27.5513 33.3265 27.5513C34.107 27.5512 34.8815 27.4147 35.6149 27.148C35.977 27.017 36.3508 26.9212 36.7312 26.8617L28.82 34.7731C27.852 35.7409 27.3189 37.0278 27.3189 38.3967C27.3189 39.7654 27.852 41.0523 28.8198 42.0201C29.8189 43.0191 31.1308 43.5185 32.4432 43.5183C33.7554 43.5183 35.0678 43.0187 36.067 42.0201L40.0404 38.0467L41.1159 39.1229L41.1166 39.1237L41.1613 39.1684L41.2043 39.2113C41.2045 39.2116 41.2048 39.2118 41.2051 39.212L41.2059 39.2127L41.2423 39.2481L56.2236 54.2294C56.3856 54.3905 56.5141 54.5822 56.6015 54.7933C56.6889 55.0045 56.7336 55.2308 56.7329 55.4594C56.7329 55.9248 56.5522 56.3617 56.2231 56.6906ZM64.271 37.6301C63.3845 38.5168 62.8023 39.6181 62.5876 40.8146C61.9501 44.3646 60.2646 47.5902 57.7137 50.1424L56.7319 51.1244L48.6489 43.0415C48.8252 43.0552 49.0019 43.0624 49.1786 43.063C49.9971 43.063 50.8345 42.9196 51.6683 42.5785C51.8248 42.5158 51.9673 42.4228 52.0876 42.3048C52.208 42.1867 52.3038 42.0461 52.3695 41.8909C52.4353 41.7357 52.4697 41.569 52.4707 41.4004C52.4718 41.2319 52.4394 41.0648 52.3756 40.9088C52.3118 40.7528 52.2177 40.6109 52.0988 40.4914C51.98 40.3719 51.8386 40.2771 51.6829 40.2125C51.5272 40.1479 51.3603 40.1147 51.1918 40.1149C51.0232 40.115 50.8563 40.1486 50.7008 40.2135C47.4124 41.559 43.4699 37.851 43.031 37.4237C43.0237 37.4165 43.0163 37.4095 43.0088 37.4026L42.9635 37.3573L42.963 37.357L42.9235 37.3176C42.9233 37.3174 42.923 37.3171 42.9227 37.317L41.8471 36.2406L43.0668 35.0207C43.1855 34.9021 43.2796 34.7613 43.3439 34.6063C43.4081 34.4512 43.4412 34.2851 43.4412 34.1173C43.4412 33.9495 43.4082 33.7833 43.344 33.6283C43.2797 33.4732 43.1856 33.3324 43.0669 33.2137C42.8273 32.9742 42.5023 32.8396 42.1635 32.8396C41.8247 32.8396 41.4997 32.9742 41.2601 33.2137L39.1398 35.334L39.1373 35.3364L39.1349 35.3389L34.26 40.2138C33.2581 41.2155 31.6284 41.2152 30.6268 40.2138C30.3876 39.9758 30.1979 39.6927 30.0687 39.3809C29.9396 39.0691 29.8736 38.7348 29.8745 38.3973C29.8736 38.0598 29.9396 37.7254 30.0688 37.4136C30.1979 37.1018 30.3877 36.8187 30.627 36.5807L39.0413 28.1661C39.508 27.6993 40.0274 27.2883 40.589 26.9416C41.9176 26.1203 43.4521 25.6863 45.0266 25.6863C46.2286 25.6863 47.4389 25.9472 48.5271 26.4411C51.0024 27.5642 53.9444 27.0409 55.8475 25.1383L57.6261 23.36L68.0837 33.8176L64.271 37.6301ZM71.464 33.5848L57.7553 19.8761L63.7063 13.9252L77.415 27.6339L71.464 33.5848Z" fill="#1B6AAB"/>
<path d="M72.7512 29.8884C73.4568 29.8884 74.0288 29.3164 74.0288 28.6108C74.0288 27.9052 73.4568 27.3331 72.7512 27.3331C72.0455 27.3331 71.4735 27.9052 71.4735 28.6108C71.4735 29.3164 72.0455 29.8884 72.7512 29.8884Z" fill="#1B6AAB"/>
<path d="M8.86979 31.1508C9.57542 31.1508 10.1474 30.5787 10.1474 29.8731C10.1474 29.1675 9.57542 28.5955 8.86979 28.5955C8.16416 28.5955 7.59213 29.1675 7.59213 29.8731C7.59213 30.5787 8.16416 31.1508 8.86979 31.1508Z" fill="#1B6AAB"/>
</g>
<defs>
<clipPath id="clip0_3_1310">
<rect width="80" height="80" fill="white" transform="translate(0.5)"/>
</clipPath>
</defs>
</svg>
