<svg width="32" height="33" viewBox="0 0 32 33" fill="none" xmlns="http://www.w3.org/2000/svg">
<path d="M21.0055 24.0977H12.3257C12.1722 24.0977 12.025 24.161 11.9165 24.2735C11.808 24.3861 11.747 24.5387 11.747 24.6979V31.8999C11.747 32.0591 11.808 32.2117 11.9165 32.3243C12.025 32.4368 12.1722 32.5001 12.3257 32.5001H21.0055C21.159 32.5001 21.3062 32.4368 21.4147 32.3243C21.5232 32.2117 21.5842 32.0591 21.5842 31.8999V24.6979C21.5842 24.5387 21.5232 24.3861 21.4147 24.2735C21.3062 24.161 21.159 24.0977 21.0055 24.0977ZM20.4269 31.2997H12.9043V25.2981H16.0869V25.8982C16.0869 26.0574 16.1479 26.2101 16.2564 26.3226C16.3649 26.4352 16.5121 26.4984 16.6656 26.4984C16.8191 26.4984 16.9662 26.4352 17.0748 26.3226C17.1833 26.2101 17.2443 26.0574 17.2443 25.8982V25.2981H20.4269V31.2997ZM31.4213 24.0977H22.7415C22.588 24.0977 22.4408 24.161 22.3323 24.2735C22.2238 24.3861 22.1628 24.5387 22.1628 24.6979V31.8999C22.1628 32.0591 22.2238 32.2117 22.3323 32.3243C22.4408 32.4368 22.588 32.5001 22.7415 32.5001H31.4213C31.5748 32.5001 31.722 32.4368 31.8305 32.3243C31.939 32.2117 32 32.0591 32 31.8999V24.6979C32 24.5387 31.939 24.3861 31.8305 24.2735C31.722 24.161 31.5748 24.0977 31.4213 24.0977ZM30.8427 31.2997H23.3201V25.2981H26.5028V25.8982C26.5028 26.0574 26.5637 26.2101 26.6722 26.3226C26.7808 26.4352 26.9279 26.4984 27.0814 26.4984C27.2349 26.4984 27.3821 26.4352 27.4906 26.3226C27.5991 26.2101 27.6601 26.0574 27.6601 25.8982V25.2981H30.8427V31.2997ZM31.4213 15.0952H22.7415C22.588 15.0952 22.4408 15.1584 22.3323 15.271C22.2238 15.3836 22.1628 15.5362 22.1628 15.6954V22.8974C22.1628 23.0566 22.2238 23.2092 22.3323 23.3218C22.4408 23.4343 22.588 23.4976 22.7415 23.4976H31.4213C31.5748 23.4976 31.722 23.4343 31.8305 23.3218C31.939 23.2092 32 23.0566 32 22.8974V15.6954C32 15.5362 31.939 15.3836 31.8305 15.271C31.722 15.1584 31.5748 15.0952 31.4213 15.0952ZM30.8427 22.2972H23.3201V16.2955H26.5028V16.8957C26.5028 17.0549 26.5637 17.2075 26.6722 17.3201C26.7808 17.4327 26.9279 17.4959 27.0814 17.4959C27.2349 17.4959 27.3821 17.4327 27.4906 17.3201C27.5991 17.2075 27.6601 17.0549 27.6601 16.8957V16.2955H30.8427V22.2972Z" fill="white"/>
<path d="M22.6663 13.8768C22.7401 13.8566 22.8094 13.8214 22.8701 13.7733C22.9309 13.7252 22.9818 13.6651 23.02 13.5965C23.0582 13.5279 23.0829 13.4521 23.0927 13.3735C23.1025 13.2949 23.0972 13.2151 23.0771 13.1386L22.5679 11.1641L24.3039 9.64563L24.3502 9.60362C25.5066 8.34103 26.3713 6.82238 26.8789 5.16238C27.2793 3.84815 27.446 2.46934 27.3707 1.09325C27.3628 0.948347 27.3045 0.811346 27.2066 0.707619C27.1087 0.603893 26.9779 0.540469 26.8384 0.529093C25.5303 0.430476 24.216 0.583073 22.9614 0.979219C21.3126 1.51212 19.8107 2.44637 18.5809 3.70398L17.1112 5.50448L13.6855 4.53821C13.7933 4.42576 13.8538 4.27365 13.8538 4.11509C13.8538 3.95654 13.7933 3.80442 13.6855 3.69197C13.6317 3.63572 13.5677 3.59107 13.4972 3.5606C13.4267 3.53013 13.351 3.51444 13.2747 3.51444C13.1983 3.51444 13.1226 3.53013 13.0521 3.5606C12.9816 3.59107 12.9176 3.63572 12.8638 3.69197L12.4587 4.11209C12.4356 4.14267 12.4143 4.17474 12.3951 4.20812L9.79114 3.48192L9.99946 3.26585C10.0537 3.21006 10.0967 3.14368 10.1261 3.07055C10.1555 2.99741 10.1706 2.91897 10.1706 2.83974C10.1706 2.76051 10.1555 2.68206 10.1261 2.60893C10.0967 2.53579 10.0537 2.46941 9.99946 2.41362C9.89104 2.30184 9.74438 2.23909 9.5915 2.23909C9.43863 2.23909 9.29197 2.30184 9.18355 2.41362L8.47759 3.10981L3.49535 1.72943C3.37226 1.69417 3.24139 1.70212 3.12312 1.75206C3.00484 1.80199 2.90582 1.8911 2.84147 2.0055L1.4932 4.4962C1.45413 4.56413 1.4284 4.63939 1.41748 4.71767C1.40655 4.79595 1.41065 4.8757 1.42955 4.95232C1.44998 5.02947 1.48508 5.10159 1.53278 5.16447C1.58048 5.22734 1.63982 5.27968 1.7073 5.31843L12.1694 11.5001L6.38285 18.5221L1.44112 17.9759C1.33732 17.9646 1.23249 17.9826 1.13776 18.0281C1.04302 18.0735 0.96189 18.1447 0.902969 18.234L0.0986357 19.4464C0.051162 19.5195 0.0198094 19.6026 0.00680776 19.6897C-0.00619392 19.7769 -0.000525398 19.8659 0.0234102 19.9505C0.0462613 20.0347 0.0865874 20.1127 0.141564 20.1791C0.19654 20.2454 0.264837 20.2985 0.341672 20.3346L4.6816 22.3452L6.3192 24.0436L8.2577 28.5449C8.2925 28.6246 8.34368 28.6954 8.40765 28.7524C8.47163 28.8094 8.54685 28.8513 8.62804 28.875C8.67978 28.8837 8.73254 28.8837 8.78428 28.875C8.90136 28.8743 9.01581 28.8389 9.11411 28.7729L10.3119 27.9267C10.399 27.8651 10.4682 27.78 10.5121 27.6806C10.5559 27.5811 10.5728 27.4712 10.5608 27.3626L10.0342 22.2491L15.6066 17.3098L16.7987 16.2535L19.9234 21.943C19.9612 22.0118 20.0118 22.0722 20.0722 22.1206C20.1325 22.169 20.2016 22.2046 20.2752 22.2252C20.3489 22.2458 20.4258 22.2512 20.5015 22.2408C20.5772 22.2305 20.6501 22.2048 20.7162 22.1651C20.8485 22.0859 20.9453 21.9557 20.9854 21.8028C21.0256 21.6499 21.0057 21.4867 20.9303 21.3489L17.6956 15.4793L21.59 12.0283L21.9603 13.4507C21.9997 13.6041 22.0961 13.7351 22.2284 13.815C22.3607 13.8949 22.5182 13.9171 22.6663 13.8768ZM2.7836 4.54421L3.6458 3.00778L16.2605 6.50075L12.9332 10.5459L2.7836 4.54421ZM21.5379 10.4979L16.5788 14.8851L14.8428 16.4155L9.05625 21.5649C8.98495 21.6288 8.92977 21.7097 8.89548 21.8007C8.8612 21.8917 8.84885 21.99 8.8595 22.0871L9.38029 27.1585L9.03889 27.3986L7.32028 23.4495C7.2908 23.3822 7.2496 23.3212 7.19876 23.2694L5.41071 21.4149C5.36206 21.3649 5.30524 21.3243 5.2429 21.2949L1.44691 19.5304L1.67837 19.1763L6.57381 19.7164C6.6674 19.7275 6.76217 19.7147 6.84991 19.6791C6.93764 19.6436 7.01568 19.5863 7.07724 19.5124L17.7361 6.54277L19.3911 4.53821C20.4781 3.42881 21.8055 2.60562 23.2623 2.13754C24.2118 1.83229 25.2022 1.68641 26.1961 1.70542C26.2008 2.75812 26.0465 3.80509 25.7389 4.80828C25.2967 6.27937 24.539 7.62746 23.5227 8.75138L21.5379 10.4979Z" fill="white"/>
<path d="M20.6699 8.31314L14.5304 13.8287C14.4199 13.9345 14.3534 14.0807 14.3451 14.2365C14.3368 14.3922 14.3872 14.5452 14.4858 14.663C14.5843 14.7808 14.7232 14.8542 14.873 14.8676C15.0228 14.8811 15.1718 14.8335 15.2884 14.7349L21.4279 9.2194C21.5384 9.1136 21.6049 8.96735 21.6132 8.81162C21.6215 8.65589 21.5711 8.50291 21.4725 8.3851C21.374 8.26728 21.2351 8.19388 21.0853 8.18045C20.9355 8.16702 20.7865 8.21461 20.6699 8.31314ZM8.37923 19.3622L7.22192 20.5626C7.11414 20.675 7.05365 20.8271 7.05365 20.9857C7.05365 21.1442 7.11414 21.2963 7.22192 21.4088C7.32876 21.5219 7.47435 21.5866 7.62698 21.5888C7.70354 21.5885 7.77928 21.5724 7.8498 21.5415C7.92032 21.5106 7.98423 21.4655 8.03782 21.4088L9.19514 20.2085C9.28994 20.0936 9.33947 19.946 9.33385 19.7949C9.32822 19.6439 9.26785 19.5006 9.1648 19.3937C9.06174 19.2868 8.92359 19.2242 8.77796 19.2184C8.63232 19.2125 8.48993 19.2639 8.37923 19.3622Z" fill="white"/>
</svg>
