<svg width="512" height="512" viewBox="0 0 512 512" fill="none" xmlns="http://www.w3.org/2000/svg">
<g clip-path="url(#clip0_144_94)">
<path d="M442.182 0H69.8182C51.3013 0 33.5427 7.35582 20.4493 20.4493C7.35582 33.5427 0 51.3013 0 69.8182L0 442.182C0 460.699 7.35582 478.457 20.4493 491.551C33.5427 504.644 51.3013 512 69.8182 512H442.182C460.699 512 478.457 504.644 491.551 491.551C504.644 478.457 512 460.699 512 442.182V69.8182C512 51.3013 504.644 33.5427 491.551 20.4493C478.457 7.35582 460.699 0 442.182 0ZM174.545 405.178C174.549 406.598 174.273 408.005 173.732 409.317C173.192 410.63 172.397 411.823 171.395 412.829C170.392 413.834 169.201 414.632 167.89 415.176C166.578 415.72 165.173 416 163.753 416H117.76C116.338 416.004 114.929 415.727 113.614 415.184C112.299 414.642 111.105 413.845 110.099 412.839C109.094 411.833 108.297 410.639 107.754 409.324C107.212 408.009 106.934 406.6 106.938 405.178V212.364C106.938 209.494 108.078 206.741 110.108 204.711C112.137 202.682 114.89 201.542 117.76 201.542H163.753C166.618 201.55 169.363 202.693 171.386 204.722C173.409 206.75 174.545 209.499 174.545 212.364V405.178ZM140.742 183.273C132.111 183.273 123.675 180.714 116.499 175.919C109.323 171.124 103.73 164.309 100.427 156.335C97.1243 148.362 96.2602 139.588 97.9439 131.123C99.6276 122.659 103.784 114.883 109.886 108.781C115.989 102.678 123.764 98.5222 132.229 96.8385C140.693 95.1547 149.467 96.0189 157.441 99.3216C165.414 102.624 172.229 108.217 177.024 115.393C181.819 122.569 184.378 131.006 184.378 139.636C184.378 151.209 179.781 162.309 171.597 170.492C163.414 178.675 152.315 183.273 140.742 183.273ZM414.953 405.935C414.957 407.242 414.702 408.538 414.203 409.746C413.705 410.955 412.972 412.054 412.047 412.978C411.123 413.903 410.024 414.636 408.816 415.134C407.607 415.633 406.311 415.888 405.004 415.884H355.549C354.241 415.888 352.946 415.633 351.737 415.134C350.528 414.636 349.43 413.903 348.505 412.978C347.581 412.054 346.848 410.955 346.35 409.746C345.851 408.538 345.596 407.242 345.6 405.935V315.607C345.6 302.109 349.556 256.495 310.313 256.495C279.913 256.495 273.716 287.709 272.495 301.731V406.051C272.495 408.665 271.467 411.173 269.632 413.035C267.798 414.897 265.304 415.962 262.691 416H214.924C213.618 416 212.326 415.742 211.121 415.242C209.915 414.742 208.82 414.008 207.899 413.084C206.977 412.16 206.247 411.063 205.75 409.856C205.254 408.649 205 407.356 205.004 406.051V211.52C205 210.215 205.254 208.922 205.75 207.715C206.247 206.508 206.977 205.411 207.899 204.487C208.82 203.562 209.915 202.829 211.121 202.329C212.326 201.828 213.618 201.571 214.924 201.571H262.691C265.33 201.571 267.86 202.619 269.726 204.485C271.592 206.351 272.64 208.881 272.64 211.52V228.335C283.927 211.375 300.655 198.342 336.349 198.342C415.418 198.342 414.895 272.175 414.895 312.727L414.953 405.935Z" fill="white"/>
</g>
<defs>
<clipPath id="clip0_144_94">
<rect width="512" height="512" fill="white"/>
</clipPath>
</defs>
</svg>
