<svg width="81" height="81" viewBox="0 0 81 81" fill="none" xmlns="http://www.w3.org/2000/svg">
<g clip-path="url(#clip0_3_1377)">
<path d="M9.18889 69.3845C7.1603 69.3845 5.50983 71.035 5.50983 73.0636C5.50983 75.0922 7.1603 76.7426 9.18889 76.7426C11.2175 76.7426 12.868 75.0922 12.868 73.0636C12.868 71.035 11.2175 69.3845 9.18889 69.3845ZM9.18889 74.3944C8.45514 74.3944 7.85811 73.7975 7.85811 73.0636C7.85811 72.3297 8.45498 71.7328 9.18889 71.7328C9.92264 71.7328 10.5197 72.3297 10.5197 73.0636C10.5197 73.7975 9.92264 74.3944 9.18889 74.3944Z" fill="#1B6AAB"/>
<path d="M80.5 41.7525C80.5 38.3427 77.7258 35.5686 74.3161 35.5686H56.3122C56.0041 35.5737 55.7103 35.6996 55.4942 35.9192C55.2781 36.1389 55.157 36.4347 55.157 36.7428C55.157 37.051 55.2781 37.3468 55.4942 37.5665C55.7103 37.7861 56.0041 37.912 56.3122 37.9171H74.3161C76.4309 37.9171 78.1517 39.6378 78.1517 41.7527C78.1517 43.8675 76.4309 45.5883 74.3161 45.5883H65.5489C65.2408 45.5933 64.947 45.7193 64.7309 45.9389C64.5148 46.1586 64.3937 46.4544 64.3937 46.7625C64.3937 47.0707 64.5148 47.3665 64.7309 47.5861C64.947 47.8058 65.2408 47.9317 65.5489 47.9368H71.8111C73.9259 47.9368 75.6467 49.6575 75.6467 51.7724C75.6467 53.8872 73.9259 55.608 71.8111 55.608H65.5489C65.2408 55.613 64.947 55.739 64.7309 55.9586C64.5148 56.1783 64.3937 56.4741 64.3937 56.7822C64.3937 57.0904 64.5148 57.3862 64.7309 57.6058C64.947 57.8255 65.2408 57.9514 65.5489 57.9564H69.3062C71.4211 57.9564 73.1419 59.6772 73.1419 61.7921C73.1419 63.9069 71.4211 65.6277 69.3062 65.6277H65.5489C65.2408 65.6327 64.947 65.7586 64.7309 65.9783C64.5148 66.198 64.3937 66.4938 64.3937 66.8019C64.3937 67.1101 64.5148 67.4059 64.7309 67.6255C64.947 67.8452 65.2408 67.9711 65.5489 67.9761H66.8014C68.9163 67.9761 70.637 69.6969 70.637 71.8118C70.637 73.9266 68.9163 75.6474 66.8014 75.6474H28.7886C28.3756 75.6474 27.9675 75.5811 27.5756 75.4507L17.8778 72.218V44.7574C19.1869 43.4836 23.7094 38.9463 28.2936 32.7439C35.2394 23.3469 38.8895 14.8722 39.1539 7.53706C40.1702 7.26222 42.1119 6.94691 43.7458 7.90691C45.4414 8.90285 46.485 11.0633 46.8478 14.3283C48.0427 25.0821 42.0391 36.0635 41.9786 36.1725C41.5564 36.9403 42.1242 37.9169 43.005 37.9169H50.6762C50.9844 37.9119 51.2781 37.786 51.4942 37.5663C51.7104 37.3466 51.8315 37.0508 51.8315 36.7427C51.8315 36.4345 51.7104 36.1387 51.4942 35.9191C51.2781 35.6994 50.9844 35.5735 50.6762 35.5685H44.9098C46.6334 31.9088 50.1817 23.0664 49.1819 14.0689C48.7316 10.016 47.2959 7.25753 44.9152 5.86988C41.5628 3.91644 37.6959 5.53472 37.533 5.60456C37.3217 5.69505 37.1417 5.84554 37.0151 6.03738C36.8886 6.22922 36.8211 6.45397 36.8211 6.68378C36.8211 15.4113 31.1694 24.8964 26.4283 31.3166C23.1756 35.7211 19.8931 39.3244 17.8778 41.4178V39.2474C17.8778 38.936 17.754 38.6373 17.5338 38.4171C17.3136 38.1969 17.015 38.0732 16.7036 38.0732H1.67422C1.36281 38.0732 1.06417 38.1969 0.843966 38.4171C0.623767 38.6373 0.500041 38.936 0.5 39.2474L0.5 79.3257C0.5 79.6371 0.623707 79.9358 0.843911 80.156C1.06412 80.3762 1.36278 80.5 1.67422 80.5H16.7036C17.015 80.5 17.3136 80.3763 17.5338 80.1561C17.754 79.9359 17.8778 79.6372 17.8778 79.3258V74.6927L26.8331 77.6777C27.4636 77.8881 28.1239 77.9952 28.7886 77.995H66.8014C70.2113 77.995 72.9853 75.2208 72.9853 71.8111C72.9853 70.1988 72.3644 68.7289 71.3498 67.6271C73.7583 66.781 75.4903 64.4855 75.4903 61.7916C75.4903 60.1793 74.8694 58.7094 73.8548 57.6075C76.2633 56.7614 77.9953 54.466 77.9953 51.7721C77.9953 50.1597 77.3744 48.6899 76.3598 47.588C78.768 46.7419 80.5 44.4463 80.5 41.7525ZM15.5294 78.1518H2.84828V40.4217H15.5294V78.1518Z" fill="#1B6AAB"/>
<path d="M60.5391 6.7622C58.5635 6.7622 56.7035 3.8958 56.7035 1.67408C56.6984 1.36597 56.5725 1.07219 56.3528 0.856081C56.1332 0.639973 55.8374 0.51886 55.5292 0.51886C55.2211 0.51886 54.9253 0.639973 54.7056 0.856081C54.486 1.07219 54.36 1.36597 54.355 1.67408C54.355 3.8958 52.495 6.7622 50.5194 6.7622C50.2113 6.76723 49.9175 6.89315 49.7014 7.11281C49.4853 7.33248 49.3642 7.62828 49.3642 7.93642C49.3642 8.24457 49.4853 8.54037 49.7014 8.76003C49.9175 8.97969 50.2113 9.10561 50.5194 9.11064C52.495 9.11064 54.355 11.977 54.355 14.1988C54.36 14.5069 54.486 14.8007 54.7056 15.0168C54.9253 15.2329 55.2211 15.354 55.5292 15.354C55.8374 15.354 56.1332 15.2329 56.3528 15.0168C56.5725 14.8007 56.6984 14.5069 56.7035 14.1988C56.7035 11.977 58.5635 9.11064 60.5391 9.11064C60.8472 9.10561 61.141 8.97969 61.3571 8.76003C61.5732 8.54037 61.6943 8.24457 61.6943 7.93642C61.6943 7.62828 61.5732 7.33248 61.3571 7.11281C61.141 6.89315 60.8472 6.76723 60.5391 6.7622ZM55.5294 10.0947C55.0381 9.25845 54.4108 8.51048 53.6839 7.93642C54.4108 7.36236 55.0381 6.61439 55.5294 5.77814C56.0206 6.61439 56.648 7.36236 57.3749 7.93642C56.6478 8.51048 56.0206 9.2583 55.5294 10.0947ZM21.7133 20.5391C19.7377 20.5391 17.8777 17.6727 17.8777 15.451C17.8726 15.1428 17.7467 14.8491 17.5271 14.633C17.3074 14.4168 17.0116 14.2957 16.7035 14.2957C16.3953 14.2957 16.0995 14.4168 15.8798 14.633C15.6602 14.8491 15.5343 15.1428 15.5292 15.451C15.5292 17.6727 13.6692 20.5391 11.6936 20.5391C11.3855 20.5441 11.0917 20.67 10.8756 20.8897C10.6595 21.1094 10.5384 21.4052 10.5384 21.7133C10.5384 22.0214 10.6595 22.3172 10.8756 22.5369C11.0917 22.7566 11.3855 22.8825 11.6936 22.8875C13.6692 22.8875 15.5292 25.7539 15.5292 27.9756C15.5343 28.2837 15.6602 28.5775 15.8798 28.7936C16.0995 29.0097 16.3953 29.1309 16.7035 29.1309C17.0116 29.1309 17.3074 29.0097 17.5271 28.7936C17.7467 28.5775 17.8726 28.2837 17.8777 27.9756C17.8777 25.7539 19.7377 22.8875 21.7133 22.8875C22.0214 22.8825 22.3152 22.7566 22.5313 22.5369C22.7474 22.3172 22.8685 22.0214 22.8685 21.7133C22.8685 21.4052 22.7474 21.1094 22.5313 20.8897C22.3152 20.67 22.0214 20.5441 21.7133 20.5391ZM16.7036 23.8716C16.2124 23.0353 15.585 22.2874 14.8581 21.7133C15.585 21.1392 16.2124 20.3913 16.7036 19.555C17.1949 20.3913 17.8222 21.1392 18.5491 21.7133C17.822 22.2874 17.1949 23.0353 16.7036 23.8716ZM79.3258 24.2964C77.3502 24.2964 75.4902 21.43 75.4902 19.2083C75.4851 18.9002 75.3592 18.6064 75.1396 18.3903C74.9199 18.1742 74.6241 18.0531 74.316 18.0531C74.0078 18.0531 73.712 18.1742 73.4923 18.3903C73.2727 18.6064 73.1468 18.9002 73.1417 19.2083C73.1417 21.43 71.2817 24.2964 69.3061 24.2964C68.998 24.3014 68.7042 24.4274 68.4881 24.647C68.272 24.8667 68.1509 25.1625 68.1509 25.4706C68.1509 25.7788 68.272 26.0746 68.4881 26.2942C68.7042 26.5139 68.998 26.6398 69.3061 26.6449C71.2817 26.6449 73.1417 29.5113 73.1417 31.733C73.1468 32.0411 73.2727 32.3349 73.4923 32.551C73.712 32.7671 74.0078 32.8882 74.316 32.8882C74.6241 32.8882 74.9199 32.7671 75.1396 32.551C75.3592 32.3349 75.4851 32.0411 75.4902 31.733C75.4902 29.5113 77.3502 26.6449 79.3258 26.6449C79.6339 26.6398 79.9277 26.5139 80.1438 26.2942C80.3599 26.0746 80.481 25.7788 80.481 25.4706C80.481 25.1625 80.3599 24.8667 80.1438 24.647C79.9277 24.4274 79.6339 24.3014 79.3258 24.2964ZM74.3161 27.6289C73.8249 26.7927 73.1975 26.0447 72.4706 25.4706C73.1975 24.8966 73.8249 24.1486 74.3161 23.3124C74.8074 24.1486 75.4347 24.8966 76.1616 25.4706C75.4345 26.0447 74.8074 26.7927 74.3161 27.6289Z" fill="#1B6AAB"/>
</g>
<defs>
<clipPath id="clip0_3_1377">
<rect width="80" height="80" fill="white" transform="translate(0.5 0.5)"/>
</clipPath>
</defs>
</svg>
