<svg width="81" height="80" viewBox="0 0 81 80" fill="none" xmlns="http://www.w3.org/2000/svg">
<path d="M53.7322 37.5L53.3661 37.8661C53.1316 38.1006 52.9999 38.4185 52.9999 38.75C52.9999 39.0816 53.1316 39.3995 53.3661 39.634C53.6005 39.8684 53.9184 40.0001 54.25 40.0001C54.5815 40.0001 54.8995 39.8684 55.1339 39.634L57.6339 37.134C57.75 37.0179 57.842 36.8801 57.9049 36.7284C57.9677 36.5768 58 36.4142 58 36.25C58 36.0859 57.9677 35.9233 57.9049 35.7717C57.842 35.62 57.75 35.4822 57.6339 35.3661L55.1339 32.8661C54.8995 32.6317 54.5815 32.5 54.25 32.5C53.9184 32.5 53.6005 32.6317 53.3661 32.8661C53.1316 33.1006 52.9999 33.4185 52.9999 33.75C52.9999 34.0816 53.1316 34.3995 53.3661 34.634L53.7322 35H40.285C40.0974 34.4736 39.795 33.9954 39.3998 33.6002C39.0046 33.205 38.5264 32.9026 38 32.715V24.2679L38.3661 24.634C38.6005 24.8684 38.9184 25.0001 39.25 25.0001C39.5815 25.0001 39.8994 24.8684 40.1339 24.634C40.3683 24.3995 40.5 24.0816 40.5 23.75C40.5 23.4185 40.3683 23.1006 40.1339 22.8661L37.6339 20.3661C37.5178 20.2501 37.38 20.158 37.2283 20.0952C37.0767 20.0323 36.9141 20 36.75 20C36.5858 20 36.4233 20.0323 36.2716 20.0952C36.1199 20.158 35.9821 20.2501 35.8661 20.3661L33.3661 22.8661C33.1316 23.1006 32.9999 23.4185 32.9999 23.75C32.9999 24.0816 33.1316 24.3995 33.3661 24.634C33.6005 24.8684 33.9184 25.0001 34.25 25.0001C34.5815 25.0001 34.8995 24.8684 35.1339 24.634L35.5 24.2679V32.715C34.9026 32.9261 34.3685 33.285 33.9474 33.7584C33.5263 34.2317 33.232 34.804 33.0919 35.4219C32.9519 36.0398 32.9706 36.6831 33.1465 37.2917C33.3223 37.9004 33.6495 38.4545 34.0975 38.9025C34.5455 39.3505 35.0997 39.6777 35.7083 39.8535C36.317 40.0294 36.9602 40.0481 37.5781 39.9081C38.196 39.7681 38.7683 39.4737 39.2416 39.0527C39.715 38.6316 40.0739 38.0974 40.285 37.5H53.7322ZM36.75 37.5C36.5027 37.5 36.2611 37.4267 36.0555 37.2894C35.8499 37.152 35.6897 36.9568 35.5951 36.7284C35.5005 36.5 35.4758 36.2487 35.524 36.0062C35.5722 35.7637 35.6913 35.541 35.8661 35.3662C36.0409 35.1913 36.2636 35.0723 36.5061 35.0241C36.7486 34.9758 36.9999 35.0006 37.2283 35.0952C37.4567 35.1898 37.652 35.35 37.7893 35.5556C37.9267 35.7611 38 36.0028 38 36.25C37.9996 36.5815 37.8678 36.8992 37.6334 37.1335C37.3991 37.3679 37.0814 37.4997 36.75 37.5Z" fill="#1B6AAB"/>
<path d="M68.8673 46.6439C71.1945 39.4405 71.0304 31.6635 68.4014 24.5646C65.7723 17.4658 60.8313 11.4579 54.3735 7.50794C47.9156 3.55798 40.3166 1.89568 32.7994 2.78855C25.2822 3.68142 18.284 7.07755 12.9311 12.4303C7.57824 17.7831 4.18202 24.7813 3.28903 32.2985C2.39605 39.8157 4.05825 47.4147 8.00811 53.8726C11.958 60.3305 17.9658 65.2716 25.0646 67.9008C32.1634 70.5299 39.9404 70.6942 47.1439 68.3671C48.2776 70.6944 49.951 72.7172 52.0247 74.2668C54.0985 75.8165 56.5125 76.8483 59.0656 77.2762C61.6188 77.7041 64.2373 77.5158 66.7029 76.7268C69.1686 75.9379 71.4101 74.5713 73.2406 72.7407C75.0712 70.9102 76.4379 68.6687 77.2268 66.2031C78.0158 63.7375 78.2042 61.119 77.7763 58.5658C77.3484 56.0126 76.3167 53.5986 74.7671 51.5249C73.2174 49.4511 71.1947 47.7777 68.8673 46.6439ZM36.75 67.5C19.5187 67.5 5.49999 53.4813 5.49999 36.25C5.49999 19.0188 19.5187 5.00002 36.75 5.00002C53.9812 5.00002 68 19.0188 68 36.25C68.0039 39.4633 67.5112 42.6578 66.5395 45.7206C65.7379 45.4732 64.9182 45.2887 64.0878 45.1689C65.0269 42.2893 65.5035 39.2789 65.5 36.25C65.5 20.3972 52.6028 7.50002 36.75 7.50002C20.8972 7.50002 7.99999 20.3972 7.99999 36.25C7.99999 52.1028 20.8972 65 36.75 65C39.7789 65.0042 42.7893 64.5279 45.6691 63.5891C45.7888 64.4188 45.9732 65.2379 46.2205 66.0389C43.1577 67.0108 39.9632 67.5036 36.75 67.5ZM45.5031 61.0049C43.0877 61.8597 40.5595 62.3537 38 62.4708V61.25C38 60.9185 37.8683 60.6006 37.6339 60.3661C37.3995 60.1317 37.0815 60 36.75 60C36.4185 60 36.1005 60.1317 35.8661 60.3661C35.6317 60.6006 35.5 60.9185 35.5 61.25V62.4696C29.4078 62.1834 23.6072 59.7767 19.1019 55.6658L19.9562 54.8114C20.0735 54.6956 20.1666 54.5578 20.2304 54.4058C20.2941 54.2538 20.3272 54.0908 20.3277 53.926C20.3282 53.7612 20.2961 53.5979 20.2333 53.4456C20.1704 53.2932 20.0781 53.1548 19.9615 53.0383C19.845 52.9218 19.7066 52.8295 19.5542 52.7666C19.4019 52.7038 19.2386 52.6717 19.0738 52.6722C18.9091 52.6728 18.746 52.7058 18.594 52.7696C18.4421 52.8334 18.3042 52.9265 18.1884 53.0438L17.3342 53.8981C13.2234 49.3928 10.8166 43.5923 10.5305 37.5H11.75C12.0815 37.5 12.3995 37.3683 12.6339 37.1339C12.8683 36.8995 13 36.5815 13 36.25C13 35.9185 12.8683 35.6006 12.6339 35.3661C12.3995 35.1317 12.0815 35 11.75 35H10.5305C10.8167 28.9078 13.2234 23.1073 17.3342 18.6019L18.3655 19.6332C18.481 19.7514 18.6189 19.8455 18.7711 19.91C18.9233 19.9746 19.0868 20.0083 19.2521 20.0093C19.4175 20.0102 19.5813 19.9783 19.7343 19.9155C19.8872 19.8527 20.0261 19.7601 20.1431 19.6433C20.26 19.5264 20.3525 19.3874 20.4154 19.2345C20.4783 19.0816 20.5101 18.9177 20.5092 18.7524C20.5083 18.5871 20.4746 18.4236 20.4101 18.2714C20.3456 18.1192 20.2515 17.9812 20.1333 17.8656L19.102 16.8344C23.6073 12.7235 29.4078 10.3167 35.5 10.0305V11.25C35.5 11.5815 35.6317 11.8995 35.8661 12.1339C36.1005 12.3683 36.4185 12.5 36.75 12.5C37.0815 12.5 37.3995 12.3683 37.6339 12.1339C37.8683 11.8995 38 11.5815 38 11.25V10.0305C44.0922 10.3167 49.8928 12.7234 54.3981 16.8342L53.5437 17.6886C53.3117 17.9235 53.182 18.2407 53.183 18.5709C53.184 18.9011 53.3157 19.2175 53.5492 19.451C53.7827 19.6845 54.0991 19.8161 54.4293 19.8171C54.7595 19.8181 55.0767 19.6884 55.3116 19.4563L56.1658 18.6019C60.2766 23.1072 62.6833 28.9078 62.9695 35H61.75C61.4185 35 61.1005 35.1317 60.8661 35.3661C60.6317 35.6006 60.5 35.9185 60.5 36.25C60.5 36.5815 60.6317 36.8995 60.8661 37.1339C61.1005 37.3683 61.4185 37.5 61.75 37.5H62.9706C62.853 40.0595 62.3587 42.5877 61.5039 45.0031C57.2815 45.0719 53.2513 46.7799 50.2653 49.766C47.2793 52.7522 45.5716 56.7825 45.5031 61.0049ZM61.75 75C59.0305 75 56.3721 74.1936 54.1109 72.6827C51.8497 71.1719 50.0874 69.0244 49.0466 66.5119C48.0059 63.9994 47.7336 61.2348 48.2642 58.5675C48.7947 55.9003 50.1043 53.4503 52.0273 51.5273C53.9502 49.6043 56.4003 48.2948 59.0675 47.7642C61.7347 47.2337 64.4994 47.506 67.0119 48.5467C69.5244 49.5874 71.6718 51.3498 73.1827 53.6109C74.6936 55.8721 75.5 58.5305 75.5 61.25C75.4958 64.8955 74.0459 68.3904 71.4681 70.9682C68.8904 73.5459 65.3954 74.9959 61.75 75Z" fill="#1B6AAB"/>
<path d="M68.7675 55.2634C68.6379 55.1626 68.4898 55.0883 68.3315 55.0447C68.1733 55.0011 68.008 54.9892 67.8451 55.0095C67.6822 55.0298 67.5249 55.082 67.3821 55.1631C67.2394 55.2442 67.1141 55.3526 67.0133 55.4822L59.1326 65.6145L56.3839 62.8656C56.1495 62.6312 55.8315 62.4995 55.5 62.4995C55.1684 62.4995 54.8505 62.6312 54.6161 62.8656C54.3816 63.1 54.2499 63.418 54.2499 63.7495C54.2499 64.0811 54.3816 64.399 54.6161 64.6334L58.3661 68.3834C58.4821 68.4996 58.6199 68.5917 58.7716 68.6546C58.9232 68.7175 59.0858 68.7499 59.25 68.75C59.2758 68.75 59.3017 68.75 59.3281 68.7475C59.505 68.7365 59.6775 68.688 59.8343 68.6052C59.991 68.5224 60.1283 68.4073 60.2372 68.2673L68.9872 57.0173C69.1906 56.7556 69.2817 56.4238 69.2405 56.0949C69.1993 55.766 69.0292 55.4669 68.7675 55.2634Z" fill="#1B6AAB"/>
</svg>
