<svg width="80" height="81" viewBox="0 0 80 81" fill="none" xmlns="http://www.w3.org/2000/svg">
<g clip-path="url(#clip0_3_1335)">
<path d="M45.724 34.224L36 43.948L34.276 42.224C34.0245 41.9811 33.6877 41.8467 33.3381 41.8498C32.9885 41.8528 32.6541 41.993 32.4069 42.2403C32.1597 42.4875 32.0195 42.8219 32.0164 43.1715C32.0134 43.5211 32.1478 43.8579 32.3907 44.1093L35.0573 46.776C35.3074 47.026 35.6465 47.1664 36 47.1664C36.3536 47.1664 36.6926 47.026 36.9427 46.776L47.6093 36.1093C47.8522 35.8579 47.9866 35.5211 47.9836 35.1715C47.9805 34.8219 47.8403 34.4875 47.5931 34.2403C47.3459 33.993 47.0115 33.8528 46.6619 33.8498C46.3123 33.8467 45.9755 33.9811 45.724 34.224Z" fill="#1B6AAB"/>
<path d="M61.3333 43.1667H61.148C61.5783 39.9377 61.2587 36.6531 60.2141 33.5676C59.1695 30.4822 57.4278 27.679 55.1245 25.3756C52.8211 23.0722 50.0178 21.3306 46.9324 20.2859C43.847 19.2413 40.5623 18.9217 37.3333 19.352V19.1667C37.3376 16.006 36.5393 12.896 35.0132 10.1282C33.4871 7.36036 31.2832 5.02537 28.608 3.34208C25.9329 1.6588 22.8741 0.682351 19.7184 0.504266C16.5628 0.326182 13.4136 0.952293 10.566 2.32391C7.71849 3.69553 5.26585 5.76773 3.43802 8.34628C1.61019 10.9248 0.467028 13.9253 0.115699 17.0664C-0.23563 20.2075 0.216376 23.3863 1.42935 26.305C2.64232 29.2236 4.57653 31.7865 7.05067 33.7533C7.072 33.776 7.10267 33.788 7.12534 33.8093C8.81988 35.1521 10.7351 36.1898 12.7853 36.876C12.812 36.888 12.84 36.896 12.868 36.9067C14.74 37.52 16.6973 37.8334 18.6667 37.8334H18.852C18.4217 41.0623 18.7413 44.347 19.7859 47.4324C20.8306 50.5179 22.5722 53.3211 24.8756 55.6245C27.179 57.9278 29.9822 59.6695 33.0676 60.7141C36.1531 61.7587 39.4377 62.0783 42.6667 61.648V61.8334C42.6681 64.6386 43.3029 67.4074 44.5237 69.9331C45.7445 72.4588 47.5199 74.6762 49.7173 76.42C49.7387 76.4427 49.7693 76.4547 49.792 76.476C51.4866 77.8187 53.4018 78.8564 55.452 79.5427C55.4787 79.5547 55.5067 79.5627 55.5347 79.5733C59.3011 80.8184 63.3682 80.8184 67.1347 79.5733C67.1627 79.5627 67.1907 79.5547 67.2173 79.5427C69.2673 78.8567 71.1821 77.819 72.876 76.476C72.9 76.4547 72.9307 76.4427 72.952 76.42C75.984 74.0121 78.1913 70.7201 79.2678 67.001C80.3442 63.2818 80.2365 59.3198 78.9593 55.6646C77.6822 52.0095 75.2992 48.8424 72.1407 46.6029C68.9823 44.3634 65.2052 43.1625 61.3333 43.1667ZM61.3333 64.5C60.2623 64.5063 59.2057 64.2532 58.2537 63.7622C57.3018 63.2713 56.483 62.5571 55.8671 61.6808C55.2513 60.8045 54.8568 59.7921 54.7174 58.7301C54.578 57.6682 54.6979 56.5882 55.0667 55.5827C56.0986 54.5473 57.0216 53.4089 57.8213 52.1853C58.8719 51.52 60.0898 51.1667 61.3333 51.1667C63.1015 51.1667 64.7971 51.8691 66.0474 53.1193C67.2976 54.3695 68 56.0652 68 57.8334C68 59.6015 67.2976 61.2972 66.0474 62.5474C64.7971 63.7976 63.1015 64.5 61.3333 64.5ZM2.66667 19.1667C2.66667 10.3307 9.83067 3.16668 18.6667 3.16668C27.5027 3.16668 34.6667 10.3307 34.6667 19.1667C34.6667 19.416 34.6587 19.6467 34.6493 19.8734C31.8326 20.6048 29.1963 21.9073 26.904 23.7C26.1848 23.1568 25.3891 22.7232 24.5427 22.4133C26.0419 21.1992 27.1281 19.5502 27.6517 17.6934C28.1753 15.8366 28.1106 13.8631 27.4666 12.0445C26.8225 10.226 25.6308 8.65165 24.0553 7.53821C22.4798 6.42478 20.5979 5.82693 18.6687 5.82693C16.7394 5.82693 14.8576 6.42478 13.2821 7.53821C11.7066 8.65165 10.5148 10.226 9.87076 12.0445C9.22672 13.8631 9.16206 15.8366 9.68567 17.6934C10.2093 19.5502 11.2954 21.1992 12.7947 22.4133C11.2164 22.9941 9.82398 23.9899 8.76426 25.2958C7.70454 26.6017 7.01673 28.1693 6.77334 29.8333C4.13127 26.9087 2.66799 23.108 2.66667 19.1667ZM12 15.1667C12 13.3986 12.7024 11.7029 13.9526 10.4526C15.2029 9.2024 16.8986 8.50002 18.6667 8.50002C20.4348 8.50002 22.1305 9.2024 23.3807 10.4526C24.631 11.7029 25.3333 13.3986 25.3333 15.1667C25.3333 16.9348 24.631 18.6305 23.3807 19.8807C22.1305 21.131 20.4348 21.8333 18.6667 21.8333C16.8986 21.8333 15.2029 21.131 13.9526 19.8807C12.7024 18.6305 12 16.9348 12 15.1667ZM18.6667 35.1667C17.3164 35.1617 15.9722 34.9847 14.6667 34.64V31.1667C14.6667 30.8131 14.5262 30.4739 14.2761 30.2239C14.0261 29.9738 13.687 29.8333 13.3333 29.8333C12.9797 29.8333 12.6406 29.9738 12.3905 30.2239C12.1405 30.4739 12 30.8131 12 31.1667V33.7C11.063 33.2681 10.1699 32.7466 9.33334 32.1427V31.1667C9.33545 29.3992 10.0385 27.7048 11.2883 26.455C12.5381 25.2052 14.2325 24.5021 16 24.5H21.3333C22.5747 24.5 23.7907 24.8493 24.8413 25.512C22.2015 28.1864 20.3155 31.5112 19.3747 35.1493C19.1453 35.1587 18.9147 35.1667 18.6667 35.1667ZM21.3333 40.5C21.3333 30.1907 29.6907 21.8333 40 21.8333C50.3093 21.8333 58.6667 30.1907 58.6667 40.5C58.6667 50.8093 50.3093 59.1667 40 59.1667C29.6947 59.156 21.344 50.8054 21.3333 40.5ZM45.3333 61.8334C45.3333 61.584 45.3413 61.3534 45.3507 61.1267C47.7308 60.5164 49.9866 59.4967 52.0173 58.1133C52.057 59.4542 52.3857 60.7707 52.981 61.9729C53.5763 63.175 54.4242 64.2344 55.4667 65.0787C53.8872 65.6588 52.4936 66.6545 51.4329 67.9606C50.3721 69.2668 49.6837 70.8351 49.44 72.5C46.7979 69.5754 45.3347 65.7747 45.3333 61.8334ZM57.3333 77.3V73.8334C57.3333 73.4797 57.1929 73.1406 56.9428 72.8905C56.6928 72.6405 56.3536 72.5 56 72.5C55.6464 72.5 55.3073 72.6405 55.0572 72.8905C54.8072 73.1406 54.6667 73.4797 54.6667 73.8334V76.3667C53.7297 75.9348 52.8366 75.4132 52 74.8093V73.8334C52.0021 72.0659 52.7052 70.3714 53.955 69.1216C55.2048 67.8719 56.8992 67.1688 58.6667 67.1667H64C65.7675 67.1688 67.4619 67.8719 68.7117 69.1216C69.9615 70.3714 70.6646 72.0659 70.6667 73.8334V74.8027C69.8304 75.4089 68.9373 75.9326 68 76.3667V73.8334C68 73.4797 67.8595 73.1406 67.6095 72.8905C67.3594 72.6405 67.0203 72.5 66.6667 72.5C66.3131 72.5 65.9739 72.6405 65.7239 72.8905C65.4738 73.1406 65.3333 73.4797 65.3333 73.8334V77.3C62.7129 78.0022 59.9538 78.0022 57.3333 77.3ZM73.2267 72.5C72.983 70.8351 72.2945 69.2668 71.2338 67.9606C70.1731 66.6545 68.7795 65.6588 67.2 65.0787C68.6957 63.8641 69.7789 62.2164 70.3008 60.3617C70.8228 58.5069 70.7579 56.5361 70.1152 54.7198C69.4724 52.9034 68.2832 51.3304 66.7109 50.2168C65.1386 49.1032 63.2601 48.5035 61.3333 48.5C60.7867 48.504 60.2427 48.5574 59.7053 48.6587C60.0773 47.7453 60.3853 46.8067 60.6267 45.8507C63.7744 45.706 66.8946 46.4954 69.5947 48.1198C72.2947 49.7442 74.4541 52.1309 75.8009 54.9795C77.1478 57.8282 77.6221 61.0116 77.164 64.1292C76.7059 67.2467 75.336 70.1592 73.2267 72.5ZM47.6093 2.22402C47.3593 1.97405 47.0202 1.83363 46.6667 1.83363C46.3131 1.83363 45.974 1.97405 45.724 2.22402L41.724 6.22402C41.474 6.47405 41.3336 6.81313 41.3336 7.16668C41.3336 7.52024 41.474 7.85931 41.724 8.10935L45.724 12.1094C45.9755 12.3522 46.3123 12.4866 46.6619 12.4836C47.0115 12.4805 47.3459 12.3403 47.5931 12.0931C47.8403 11.8459 47.9805 11.5115 47.9836 11.1619C47.9866 10.8123 47.8522 10.4755 47.6093 10.224L45.9507 8.56535C62.824 9.61468 75.9773 23.5947 76 40.5C76 40.8536 76.1405 41.1928 76.3905 41.4428C76.6406 41.6929 76.9797 41.8334 77.3334 41.8334C77.687 41.8334 78.0261 41.6929 78.2762 41.4428C78.5262 41.1928 78.6667 40.8536 78.6667 40.5C78.6453 22.076 64.232 6.88002 45.836 5.88268L47.6093 4.10935C47.8593 3.85931 47.9997 3.52024 47.9997 3.16668C47.9997 2.81313 47.8593 2.47405 47.6093 2.22402ZM4 40.5C4 40.1464 3.85953 39.8073 3.60948 39.5572C3.35943 39.3072 3.02029 39.1667 2.66667 39.1667C2.31305 39.1667 1.97391 39.3072 1.72386 39.5572C1.47381 39.8073 1.33334 40.1464 1.33334 40.5C1.35467 58.924 15.768 74.12 34.164 75.1174L32.3907 76.8907C32.2633 77.0137 32.1618 77.1608 32.0919 77.3235C32.022 77.4862 31.9852 77.6611 31.9837 77.8382C31.9821 78.0152 32.0159 78.1908 32.0829 78.3546C32.15 78.5185 32.249 78.6674 32.3741 78.7925C32.4993 78.9177 32.6482 79.0167 32.8121 79.0838C32.9759 79.1508 33.1515 79.1846 33.3285 79.183C33.5056 79.1815 33.6805 79.1447 33.8432 79.0748C34.0059 79.0049 34.153 78.9034 34.276 78.776L38.276 74.776C38.526 74.526 38.6664 74.1869 38.6664 73.8334C38.6664 73.4798 38.526 73.1407 38.276 72.8907L34.276 68.8907C34.0245 68.6478 33.6877 68.5134 33.3381 68.5164C32.9885 68.5195 32.6541 68.6597 32.4069 68.9069C32.1597 69.1541 32.0195 69.4885 32.0164 69.8382C32.0134 70.1877 32.1478 70.5246 32.3907 70.776L34.0493 72.4347C17.176 71.3854 4.02267 57.4053 4 40.5Z" fill="#1B6AAB"/>
</g>
<defs>
<clipPath id="clip0_3_1335">
<rect width="80" height="80" fill="white" transform="translate(0 0.5)"/>
</clipPath>
</defs>
</svg>
