<svg width="81" height="76" viewBox="0 0 81 76" fill="none" xmlns="http://www.w3.org/2000/svg">
<path d="M39.15 28.4204C39.6711 28.9154 40.5378 28.8152 40.9339 28.2177L48.7336 16.4464C48.8186 16.3181 48.8776 16.1743 48.907 16.0232C48.9365 15.8721 48.9359 15.7166 48.9053 15.5657C48.8747 15.4149 48.8146 15.2715 48.7286 15.1438C48.6426 15.0161 48.5322 14.9066 48.4039 14.8216C47.8651 14.4646 47.1375 14.6122 46.7798 15.1513L39.7511 25.7591L35.8455 22.0507C35.6199 21.8367 35.3187 21.721 35.0079 21.7291C34.6971 21.7373 34.4023 21.8685 34.1883 22.0939C34.0823 22.2056 33.9994 22.337 33.9443 22.4806C33.8892 22.6243 33.8629 22.7774 33.8669 22.9312C33.8709 23.085 33.9052 23.2366 33.9678 23.3771C34.0304 23.5177 34.1201 23.6446 34.2317 23.7505C34.2311 23.7505 39.1456 28.4166 39.1498 28.4204H39.15Z" fill="#1B6AAB"/>
<path d="M39.9495 46.2944C40.175 46.3974 40.4199 46.4509 40.6678 46.4513H40.6777C40.9292 46.4499 41.1773 46.3933 41.4045 46.2853C59.2244 37.8105 62.2444 19.5257 62.7448 14.1235C62.8597 12.8899 62.1651 11.7413 61.017 11.2652C57.4695 9.79237 55.0581 6.49894 54.7236 2.67019C54.6205 1.49159 53.6134 0.572998 52.4269 0.572998H52.4128L28.4053 0.713936C27.195 0.720654 26.2116 1.6405 26.1189 2.85331C25.8236 6.68315 23.4473 10.0005 19.9177 11.5105C18.7812 11.9964 18.1037 13.1511 18.2333 14.3839C18.7972 19.7802 22.0314 38.0291 39.9495 46.2944ZM20.8394 13.6652C25.1675 11.8146 28.0831 7.75144 28.4534 3.05737L52.3922 2.91675C52.8176 7.60065 55.7748 11.6264 60.1187 13.4294C60.3128 13.5107 60.4306 13.7022 60.4117 13.9074C59.9417 18.9702 57.1298 36.0411 40.6637 44.041C24.1031 36.2358 21.0934 19.1978 20.5637 14.1405C20.5527 14.0422 20.5735 13.9428 20.6231 13.8572C20.6728 13.7716 20.7487 13.7042 20.8395 13.665L20.8394 13.6652Z" fill="#1B6AAB"/>
<path d="M23.7653 20.1616C23.907 20.6828 24.568 21.16 25.2039 20.985C25.8278 20.8128 26.197 20.1714 26.0273 19.547C25.7299 18.452 25.4809 17.3443 25.2809 16.2274C28.4609 14.1574 30.8293 11.0537 31.9863 7.44001L48.91 7.34063C50.1092 10.9404 52.5138 14.0161 55.7178 16.0484C55.5314 17.1686 55.2953 18.2799 55.01 19.3791C54.9321 19.68 54.9768 19.9995 55.1345 20.2674C55.2922 20.5353 55.5498 20.7296 55.8507 20.8076C56.1516 20.8855 56.4712 20.8408 56.7391 20.6831C57.007 20.5254 57.2013 20.2678 57.2792 19.9669C57.6137 18.6773 57.8846 17.372 58.0909 16.0558C58.1473 15.7031 58.097 15.3417 57.9465 15.0178C57.796 14.6939 57.5522 14.4224 57.2463 14.2381C54.2615 12.4379 52.0467 9.59885 51.0267 6.26579C50.7966 5.51563 50.0892 4.99438 49.3044 4.99438H49.2934L31.5747 5.09813C30.785 5.10298 30.0783 5.6347 29.8567 6.39032C28.8739 9.73798 26.6981 12.595 23.7313 14.4353C23.1094 14.8205 22.7864 15.5375 22.9078 16.2627C23.1299 17.5755 23.416 18.8767 23.7653 20.1616ZM54.9105 23.6363C54.3122 23.3886 53.6275 23.6742 53.3803 24.2722C50.6722 30.8361 46.385 35.8263 40.6342 39.1106C34.8389 35.8897 30.4897 30.9416 27.7052 24.3986C27.5831 24.1128 27.3527 23.8872 27.0644 23.7711C26.7762 23.6551 26.4536 23.6583 26.1677 23.7799C26.0261 23.8401 25.8978 23.9276 25.79 24.0374C25.6823 24.1473 25.5972 24.2772 25.5397 24.4199C25.4822 24.5626 25.4533 24.7153 25.4548 24.8691C25.4563 25.023 25.4881 25.175 25.5483 25.3166C28.5872 32.4566 33.3748 37.8392 39.778 41.3139C40.0448 41.4598 40.3443 41.5354 40.6484 41.5337C40.9524 41.532 41.2511 41.453 41.5163 41.3042C47.8713 37.7586 52.5917 32.3289 55.547 25.1659C55.6058 25.0237 55.636 24.8713 55.6358 24.7174C55.6356 24.5635 55.6051 24.4112 55.546 24.2691C55.4869 24.127 55.4003 23.998 55.2912 23.8894C55.1822 23.7808 55.0528 23.6948 54.9105 23.6363ZM8.01891 60.5375C5.73313 60.5375 3.87282 62.3974 3.87282 64.6838C3.87282 66.97 5.73313 68.8299 8.01891 68.8299C10.3053 68.8299 12.1658 66.97 12.1658 64.6838C12.1658 62.3974 10.3059 60.5375 8.01891 60.5375ZM8.01891 66.4859C7.02516 66.4859 6.21657 65.678 6.21657 64.6838C6.21657 63.69 7.02532 62.8813 8.01891 62.8813C9.01313 62.8813 9.82204 63.69 9.82204 64.6838C9.82204 65.678 9.01313 66.4861 8.01891 66.4861V66.4859Z" fill="#1B6AAB"/>
<path d="M79.6595 49.0648C78.1575 46.8578 75.1331 46.273 72.9183 47.7611L57.5984 58.0144L54.3281 57.8306L54.2445 56.9931C54.0895 55.4034 53.4039 53.9122 52.2981 52.7597C51.1923 51.6071 49.7308 50.8603 48.1489 50.6395C48.1285 50.6365 48.1079 50.634 48.0873 50.6322L31.5797 49.1855C31.0212 49.0983 29.2336 48.5848 24.3214 45.7675C21.7683 44.3033 18.8917 43.4769 15.9694 43.3645V40.2989C15.9694 38.76 14.7181 37.5089 13.1794 37.5089H3.28984C1.75187 37.5089 0.5 38.7608 0.5 40.2989V70.4936C0.5 72.0317 1.75187 73.2836 3.28984 73.2836H13.1794C14.7175 73.2836 15.9694 72.0317 15.9694 70.4936V69.6617L30.3992 75.1263C30.4311 75.1384 31.603 75.5766 33.7575 75.3734C33.7636 75.3728 57.7339 71.917 57.7339 71.917C57.74 71.9164 57.7455 71.9152 57.7516 71.9139C59.8019 71.5861 61.7293 70.7226 63.3387 69.4108C63.3534 69.3986 63.3675 69.3864 63.3814 69.3742L78.8667 55.4466C80.6917 53.8263 81.0328 51.0825 79.6595 49.0648ZM77.3048 53.6992L61.8361 67.6122C60.5532 68.6514 59.0204 69.3362 57.3903 69.5981L33.4316 73.0522C33.4246 73.0531 33.4177 73.0541 33.4108 73.0553L33.3992 73.057C32.6827 73.17 31.9361 73.1223 31.18 72.9155L15.9694 67.1558V53.7727C15.9694 53.4619 15.8459 53.1638 15.6261 52.944C15.4064 52.7243 15.1083 52.6008 14.7975 52.6008C14.6436 52.6007 14.4912 52.631 14.349 52.6899C14.2068 52.7487 14.0776 52.8351 13.9687 52.9439C13.8599 53.0527 13.7736 53.1819 13.7147 53.3241C13.6558 53.4663 13.6256 53.6188 13.6256 53.7727V70.4938C13.6255 70.6121 13.5784 70.7255 13.4947 70.8091C13.4111 70.8928 13.2977 70.9398 13.1794 70.94H3.28984C3.17154 70.9398 3.05815 70.8927 2.97453 70.809C2.8909 70.7253 2.84387 70.6119 2.84375 70.4936V40.2989C2.84396 40.1807 2.89102 40.0673 2.97464 39.9837C3.05825 39.9001 3.1716 39.853 3.28984 39.8528H13.1794C13.2977 39.853 13.411 39.9 13.4947 39.9836C13.5783 40.0673 13.6254 40.1806 13.6256 40.2989V48.4789C13.6256 48.7897 13.7491 49.0878 13.9689 49.3076C14.1886 49.5273 14.4867 49.6508 14.7975 49.6508C15.1083 49.6508 15.4064 49.5273 15.6261 49.3076C15.8459 49.0878 15.9694 48.7897 15.9694 48.4789V45.7109C18.4834 45.8219 20.9566 46.5397 23.155 47.8014C29.0797 51.1992 30.7344 51.4336 31.2781 51.5105C31.2989 51.5136 31.3191 51.5153 31.3398 51.5178L47.8492 52.9644C48.9052 53.1184 49.8792 53.6218 50.6156 54.3941C51.3521 55.1664 51.8086 56.1632 51.9123 57.2253L51.9747 57.8495L29.8719 59.2144C29.5121 59.1891 29.1612 59.0912 28.8403 58.9266C28.5194 58.762 28.2351 58.5341 28.0047 58.2567C27.9062 58.1385 27.7854 58.0408 27.6491 57.9693C27.5129 57.8978 27.3639 57.8538 27.2106 57.8399C27.0573 57.826 26.9029 57.8425 26.756 57.8883C26.6091 57.9342 26.4727 58.0086 26.3545 58.1072C26.2363 58.2057 26.1386 58.3265 26.067 58.4628C25.9955 58.599 25.9515 58.7481 25.9376 58.9014C25.9238 59.0546 25.9402 59.2091 25.9861 59.356C26.032 59.5029 26.1064 59.6394 26.205 59.7575C27.065 60.7891 28.2784 61.4061 29.6192 61.5453C30.3431 61.6209 53.2637 60.1183 53.2637 60.1183L57.8584 60.3764C58.1125 60.3908 58.3644 60.3217 58.5756 60.1798L74.2237 49.7075C75.3731 48.9355 76.9422 49.2381 77.7217 50.3831C78.4339 51.4305 78.257 52.8539 77.3048 53.6992Z" fill="#1B6AAB"/>
</svg>
