<svg width="32" height="33" viewBox="0 0 32 33" fill="none" xmlns="http://www.w3.org/2000/svg">
<g clip-path="url(#clip0_3_472)">
<path d="M8.5 6C8.5 4.3455 7.1545 3 5.5 3C3.8455 3 2.5 4.3455 2.5 6C2.5 7.6545 3.8455 9 5.5 9C7.1545 9 8.5 7.6545 8.5 6ZM3.5 6C3.5 4.897 4.397 4 5.5 4C6.603 4 7.5 4.897 7.5 6C7.5 7.103 6.603 8 5.5 8C4.397 8 3.5 7.103 3.5 6ZM27.436 4.3565L28.143 3.6495L28.85 4.3565L28.143 5.0635L27.436 4.3565ZM26.0215 5.77L26.7285 5.063L27.4355 5.77L26.7285 6.477L26.0215 5.77ZM24.6435 7.1485L25.315 6.4775L26.022 7.1845L25.35 7.855L24.6435 7.1485Z" fill="white"/>
<path d="M30 22H27.2265C28.0644 20.2876 28.5 18.4064 28.5 16.5C28.5 13.96 27.742 11.5405 26.3195 9.46198C26.6975 9.19842 27.0659 8.92141 27.424 8.63148L30.5 11.707L31.572 10.635L30.072 6.13448L30.232 5.97448C30.4764 5.7318 30.6701 5.44298 30.802 5.12479C30.9338 4.80661 31.0011 4.4654 31 4.12098C30.9991 3.42604 30.7226 2.75984 30.2311 2.2685C29.7397 1.77715 29.0734 1.50077 28.3785 1.49998C28.0342 1.49913 27.6932 1.56647 27.375 1.69811C27.0569 1.82976 26.768 2.0231 26.525 2.26698L26.364 2.42798L21.8645 0.927979L20.793 1.99998L23.869 5.07598C23.5789 5.43382 23.3019 5.80206 23.0385 6.17998C20.9678 4.75623 18.513 3.99593 16 3.99998C14.0675 3.99998 12.163 4.44848 10.4455 5.30048C10.1035 2.87448 8.019 0.999979 5.5 0.999979C2.743 0.999979 0.500002 3.24298 0.500002 5.99998V6.13748C0.499177 7.12476 0.791532 8.09006 1.34 8.91098L4.0235 12.936C3.67759 14.0924 3.50125 15.2929 3.5 16.5C3.5 18.058 3.7825 19.568 4.3365 21H4C3.173 21 2.5 21.673 2.5 22.5C2.5 23.151 2.9195 23.701 3.5 23.908V25H0.500002V26.6745C0.500002 29.611 2.889 32 5.8255 32H11.36C13.4145 32 15.2715 30.801 16.1505 28.996C17.6387 28.9818 19.1122 28.6998 20.5005 28.1635V30.5C20.5005 31.327 21.1735 32 22.0005 32H30.0005C30.8275 32 31.5005 31.327 31.5005 30.5V23.5C31.4998 23.1023 31.3415 22.7211 31.0603 22.4399C30.779 22.1587 30.3977 22.0005 30 22ZM24.5 23H27.5V24H24.5V23ZM22 22H20.507C20.7965 20.488 20.968 18.798 20.995 17H27.4835C27.4083 18.7508 26.9333 20.4611 26.095 22H22ZM16.4845 27.899L16.5 27H14.309L12.7145 23.8105C13.0373 23.6346 13.2841 23.3461 13.408 23H19.2635C18.5875 25.693 17.535 27.473 16.4845 27.899ZM13.408 22C13.3245 21.7648 13.1835 21.5542 12.998 21.3872C12.8124 21.2203 12.5882 21.1023 12.3455 21.044C12.1393 19.7055 12.0272 18.3542 12.01 17H19.995C19.9665 18.8485 19.781 20.5335 19.488 22H13.408ZM4.519 16C4.5505 15.264 4.6445 14.5355 4.814 13.824C5.12839 13.9958 5.49574 14.0436 5.84364 13.958C6.19154 13.8724 6.49475 13.6596 6.6935 13.3615L8.2675 11H11.493C11.2035 12.512 11.032 14.202 11.005 16H4.519ZM12.515 11H19.4915C19.7945 12.529 19.9635 14.231 19.991 16H12.0095C12.0385 14.152 12.2215 12.4655 12.515 11ZM16 4.99998C16.8885 4.99998 17.8025 6.00598 18.536 7.75698L18.156 8.13698L18.808 8.46298C18.978 8.94548 19.1325 9.45698 19.268 9.99998H12.7395C13.521 6.89448 14.803 4.99998 16 4.99998ZM21.54 8.71098L19.844 7.86298L20.1535 7.55398L21.9105 7.99298C21.7815 8.22898 21.6595 8.46898 21.54 8.71098ZM21.12 9.61898L21.1075 9.64598C21.0585 9.75948 21.0325 9.87898 21.017 9.99998H20.294C20.2214 9.69363 20.1416 9.38904 20.0545 9.08648L21.12 9.61898ZM27.4805 16H20.991C20.9645 14.241 20.8 12.5435 20.507 11H21.299C21.4792 11.2268 21.729 11.3881 22.0099 11.459C22.2908 11.5299 22.5872 11.5066 22.8535 11.3925L22.881 11.38L24.363 14.344L26.0535 12.653L25.4065 10.0645C25.4335 10.048 25.4595 10.03 25.4865 10.013C26.7023 11.7808 27.3935 13.8562 27.4805 16ZM24.507 10.5895L24.946 12.3465L24.6365 12.6555L23.7885 10.9595C24.031 10.8405 24.271 10.7185 24.507 10.5895ZM30.356 10.149L28.187 7.97998C28.4385 7.75348 28.6855 7.52148 28.9255 7.28098L29.281 6.92548L30.356 10.149ZM28.3785 2.49998C28.8083 2.50038 29.2205 2.67127 29.5245 2.97517C29.8284 3.27906 29.9995 3.69114 30 4.12098C30 4.55448 29.8315 4.96148 29.525 5.26748L28.2185 6.57398C26.5658 8.2294 24.6112 9.55292 22.4605 10.473C22.249 10.562 22 10.397 22 10.1705C22 10.1256 22.009 10.0813 22.0265 10.04C22.9466 7.88901 24.2701 5.93414 25.9255 4.28098L27.2315 2.97448C27.3819 2.82349 27.5606 2.70428 27.7575 2.62275C27.9544 2.54122 28.1654 2.49949 28.3785 2.49998ZM22.3515 2.14398L25.5745 3.21848L25.219 3.57448C24.9785 3.81498 24.7465 4.06198 24.52 4.31298L22.3515 2.14398ZM22.435 7.09348L19.847 6.44598L19.298 6.99498C18.9695 6.28148 18.606 5.68548 18.2145 5.21998C19.7468 5.51766 21.2012 6.12803 22.487 7.01298C22.4695 7.04048 22.4515 7.06648 22.435 7.09348ZM10.4795 6.41548C11.5228 5.84289 12.649 5.43635 13.8175 5.21048C12.9355 6.25548 12.204 7.92298 11.7075 9.99998H8.934L9.66 8.91098C10.1575 8.16448 10.43 7.30598 10.4795 6.41548ZM1.5 6.13748V5.99998C1.5 3.79448 3.2945 1.99998 5.5 1.99998C7.7055 1.99998 9.5 3.79448 9.5 5.99998V6.13748C9.50067 6.92737 9.26679 7.69967 8.828 8.35648L5.861 12.8065C5.6995 13.0485 5.3 13.0485 5.1385 12.8065L2.1715 8.35648C1.733 7.69957 1.4993 6.9273 1.5 6.13748ZM4.513 17H11.01C11.031 18.383 11.1375 19.723 11.3285 21H5.418C4.87678 19.7324 4.57014 18.3771 4.513 17ZM4 22H12C12.1287 22.0057 12.2503 22.0609 12.3394 22.1541C12.4284 22.2472 12.4781 22.3711 12.4781 22.5C12.4781 22.6289 12.4284 22.7528 12.3394 22.8459C12.2503 22.939 12.1287 22.9942 12 23H4C3.87126 22.9942 3.7497 22.939 3.66064 22.8459C3.57158 22.7528 3.52187 22.6289 3.52187 22.5C3.52187 22.3711 3.57158 22.2472 3.66064 22.1541C3.7497 22.0609 3.87126 22.0057 4 22ZM4.5 24H11.691L13.191 27H6.309L5.309 25H4.5V24ZM11.36 31H5.8255C3.4405 31 1.5 29.0595 1.5 26.6745V26H4.691L5.691 28H15.4775C14.906 29.7735 13.233 31 11.36 31ZM18.182 27.79C19.064 26.745 19.796 25.077 20.2925 23H20.592C20.5328 23.1601 20.5017 23.3293 20.5 23.5V27.0815C19.75 27.4015 18.976 27.638 18.182 27.79ZM30.5 30.5C30.5 30.776 30.2755 31 30 31H22C21.7245 31 21.5 30.776 21.5 30.5V23.5C21.5 23.224 21.7245 23 22 23H23.5V25H28.5V23H30C30.2755 23 30.5 23.224 30.5 23.5V30.5Z" fill="white"/>
<path d="M28.5 29H29.5V30H28.5V29ZM26.5 29H27.5V30H26.5V29ZM8.5 25H9.5V26H8.5V25ZM10.5 25H11.5V26H10.5V25ZM6.5 25H7.5V26H6.5V25ZM13.5 18H14.5V19H13.5V18ZM17.5 18H18.5V19H17.5V18ZM15.5 18H16.5V19H15.5V18ZM17.5 14H18.5V15H17.5V14ZM15.5 14H16.5V15H15.5V14ZM13.5 14H14.5V15H13.5V14Z" fill="white"/>
</g>
<defs>
<clipPath id="clip0_3_472">
<rect width="32" height="32" fill="white" transform="translate(0 0.5)"/>
</clipPath>
</defs>
</svg>
