<svg width="32" height="32" viewBox="0 0 32 32" fill="none" xmlns="http://www.w3.org/2000/svg">
<g clip-path="url(#clip0_62_152)">
<path d="M6.87463 7.87524C6.52963 7.87524 6.24963 8.15524 6.24963 8.50024C6.24963 8.84524 6.52963 9.12524 6.87463 9.12524C7.21963 9.12524 7.49963 8.84524 7.49963 8.50024C7.49963 8.15524 7.21963 7.87524 6.87463 7.87524Z" fill="white"/>
<path d="M29.4328 13.2206L28.5285 11.4119C28.2087 10.7724 27.5662 10.3752 26.8514 10.3752H21.6241V6.00043C21.6241 4.96661 20.7831 4.12549 19.7492 4.12549H1.87494C0.841063 4.12549 0 4.96655 0 6.00043V22.2497C0 23.2836 0.841063 24.1247 1.87494 24.1247H3.74988C3.74988 25.0843 4.11269 25.9606 4.70775 26.6246H0.625C0.279813 26.6246 0 26.9044 0 27.2496C0 27.5947 0.279813 27.8746 0.625 27.8746H31.3738C31.7189 27.8746 31.9988 27.5947 31.9988 27.2496C31.9988 26.9044 31.7189 26.6246 31.3738 26.6246H29.7909C30.386 25.9606 30.7488 25.0843 30.7488 24.1247C30.7488 24.0891 30.7471 24.0536 30.7461 24.0181C31.4749 23.7608 31.9987 23.0655 31.9987 22.2497V18.7949C31.9987 18.0656 32.1431 18.7464 29.4328 13.2206ZM28.4876 14.1251L30.3625 17.8749H24.124V14.1251H28.4876ZM1.24994 19.1249H2.49988V20.3748H1.24994V19.1249ZM7.49969 26.6246C6.12125 26.6246 4.99981 25.5031 4.99981 24.1247C4.99981 23.9544 5.01669 23.7869 5.05044 23.6239C5.2855 22.4656 6.31556 21.6247 7.49969 21.6247C8.68381 21.6247 9.71394 22.4655 9.94894 23.6239L9.9495 23.6266C9.98275 23.7868 9.99956 23.9544 9.99956 24.1247C9.99956 25.5031 8.87813 26.6246 7.49969 26.6246ZM7.49969 20.3748C5.89838 20.3748 4.48519 21.4006 3.96419 22.8747H1.87494C1.53031 22.8747 1.24994 22.5943 1.24994 22.2497V21.6247H3.12488C3.47006 21.6247 3.74988 21.3448 3.74988 20.9997V18.4998C3.74988 18.1547 3.47006 17.8748 3.12488 17.8748H1.24994V6.00043C1.24994 5.6558 1.53031 5.37543 1.87494 5.37543H19.7492C20.0938 5.37543 20.3742 5.6558 20.3742 6.00043V22.8747H11.0349C10.5129 21.3999 9.10031 20.3748 7.49969 20.3748ZM10.2916 26.6246C10.8868 25.9606 11.2495 25.0843 11.2495 24.1247H23.249C23.249 25.0843 23.6118 25.9606 24.2069 26.6246H10.2916ZM26.9989 26.6246C25.6204 26.6246 24.499 25.5031 24.499 24.1247C24.499 23.9544 24.5159 23.7869 24.5496 23.6239C24.7847 22.4656 25.8147 21.6247 26.9989 21.6247C28.183 21.6247 29.2131 22.4655 29.4481 23.6239L29.4487 23.6266C29.4819 23.7868 29.4988 23.9544 29.4988 24.1247C29.4988 25.5031 28.3773 26.6246 26.9989 26.6246ZM30.7488 22.2497C30.7488 22.4576 30.6463 22.6416 30.4897 22.7553C29.9353 21.3447 28.5559 20.3749 26.9989 20.3749C25.3976 20.3749 23.9844 21.4007 23.4634 22.8747H21.6241V11.6252H26.8514C26.9676 11.6248 27.0815 11.657 27.1803 11.7181C27.2791 11.7792 27.3588 11.8668 27.4104 11.9709L27.8626 12.8751H23.4991C23.1539 12.8751 22.8741 13.155 22.8741 13.5001V18.4999C22.8741 18.8451 23.1539 19.1249 23.4991 19.1249H30.7488V22.2497Z" fill="white"/>
<path d="M17.2493 7.87524H9.37463C9.02944 7.87524 8.74963 8.15512 8.74963 8.50024C8.74963 8.84537 9.02944 9.12524 9.37463 9.12524H17.2493C17.5945 9.12524 17.8743 8.84537 17.8743 8.50024C17.8743 8.15512 17.5944 7.87524 17.2493 7.87524ZM17.2493 10.3751H11.8745C11.5293 10.3751 11.2495 10.655 11.2495 11.0001C11.2495 11.3452 11.5293 11.6251 11.8745 11.6251H17.2493C17.5945 11.6251 17.8743 11.3452 17.8743 11.0001C17.8743 10.655 17.5944 10.3751 17.2493 10.3751ZM26.9989 22.8746C26.3096 22.8746 25.7489 23.4354 25.7489 24.1246C25.7489 24.8138 26.3097 25.3745 26.9989 25.3745C27.6881 25.3745 28.2488 24.8137 28.2488 24.1246C28.2488 23.4353 27.6881 22.8746 26.9989 22.8746ZM7.49969 22.8746C6.81044 22.8746 6.24976 23.4354 6.24976 24.1246C6.24976 24.8138 6.81051 25.3745 7.49969 25.3745C8.18894 25.3745 8.74963 24.8137 8.74963 24.1246C8.74963 23.4353 8.18894 22.8746 7.49969 22.8746Z" fill="white"/>
</g>
<defs>
<clipPath id="clip0_62_152">
<rect width="32" height="32" fill="white"/>
</clipPath>
</defs>
</svg>
