<svg width="64" height="64" viewBox="0 0 64 64" fill="none" xmlns="http://www.w3.org/2000/svg">
<path d="M59.5197 28.9204L57.8624 22.291C58.3155 22.1948 58.6555 21.7928 58.6555 21.3112V20.2423C58.6555 17.9215 56.7674 16.0335 54.4467 16.0335H46.8977V13.8288C46.8977 12.6868 45.9687 11.7578 44.8267 11.7578H6.3465C5.2045 11.7578 4.2755 12.6868 4.2755 13.8288V32C4.2755 32.2658 4.38108 32.5207 4.56901 32.7087C4.75695 32.8966 5.01184 33.0022 5.27762 33.0022C5.5434 33.0022 5.7983 32.8966 5.98623 32.7087C6.17417 32.5207 6.27975 32.2658 6.27975 32V13.8288C6.27975 13.7919 6.30962 13.762 6.3465 13.762H44.8266C44.8635 13.762 44.8934 13.7919 44.8934 13.8288V32.0003C44.8934 32.2661 44.9989 32.521 45.1869 32.7089C45.3748 32.8968 45.6297 33.0024 45.8955 33.0024C46.1613 33.0024 46.4162 32.8968 46.6041 32.7089C46.792 32.521 46.8976 32.2661 46.8976 32.0003V30.8643H58.7187L58.7214 30.8645L58.7241 30.8644C60.1787 30.8654 61.4139 31.8202 61.8381 33.1358H58.7221C58.4563 33.1358 58.2014 33.2414 58.0135 33.4293C57.8256 33.6172 57.72 33.8721 57.72 34.1379V36.2757C57.72 38.007 59.1285 39.4155 60.8599 39.4155H61.9956V43.8247H59.3754C58.5146 41.3393 56.152 39.549 53.3776 39.549C50.6032 39.549 48.2405 41.3393 47.3799 43.8247H46.8974V36.2755C46.8974 36.0098 46.7918 35.7549 46.6039 35.5669C46.4159 35.379 46.161 35.2734 45.8952 35.2734C45.6295 35.2734 45.3746 35.379 45.1866 35.5669C44.9987 35.7549 44.8931 36.0098 44.8931 36.2755V43.8244H24.1021C23.2414 41.339 20.8787 39.5488 18.1044 39.5488C15.33 39.5488 12.9672 41.339 12.1066 43.8244H6.3465C6.3288 43.8244 6.31182 43.8174 6.2993 43.8049C6.28678 43.7924 6.27975 43.7754 6.27975 43.7577V41.553H10.6221C10.8879 41.553 11.1428 41.4475 11.3307 41.2595C11.5187 41.0716 11.6242 40.8167 11.6242 40.5509C11.6242 40.2851 11.5187 40.0302 11.3307 39.8423C11.1428 39.6544 10.8879 39.5488 10.6221 39.5488H1.00212C0.736345 39.5488 0.48145 39.6544 0.293516 39.8423C0.105581 40.0302 0 40.2851 0 40.5509C0 40.8167 0.105581 41.0716 0.293516 41.2595C0.48145 41.4475 0.736345 41.553 1.00212 41.553H4.27562V43.7577C4.27562 44.8997 5.20462 45.8287 6.34662 45.8287H11.7596C11.7594 45.8509 11.7579 45.873 11.7579 45.8954C11.7579 49.3949 14.605 52.2419 18.1044 52.2419C21.6037 52.2419 24.4509 49.3949 24.4509 45.8954C24.4509 45.8729 24.4494 45.8509 24.4491 45.8287H47.0329C47.0326 45.8509 47.0311 45.873 47.0311 45.8954C47.0311 49.3949 49.8782 52.2419 53.3776 52.2419C56.877 52.2419 59.7241 49.3949 59.7241 45.8954C59.7241 45.8729 59.7226 45.8509 59.7224 45.8287H62.9977C63.2635 45.8287 63.5184 45.7231 63.7064 45.5352C63.8943 45.3472 63.9999 45.0923 63.9999 44.8265V34.1377C64 31.4987 62.0529 29.306 59.5197 28.9204ZM46.8977 18.0377H54.4467C55.6624 18.0377 56.6514 19.0267 56.6514 20.2423V20.309H46.8977V18.0377ZM46.8977 28.8602V22.3132H55.8021L57.4389 28.8602H46.8977ZM18.1044 50.238C15.71 50.238 13.762 48.2902 13.762 45.8957C13.762 43.5012 15.71 41.5533 18.1044 41.5533C20.4987 41.5533 22.4467 43.5012 22.4467 45.8957C22.4467 48.2902 20.4987 50.238 18.1044 50.238ZM53.3779 50.238C50.9835 50.238 49.0355 48.2902 49.0355 45.8957C49.0355 43.5012 50.9835 41.5533 53.3779 41.5533C55.7722 41.5533 57.7202 43.5012 57.7202 45.8957C57.7202 48.2902 55.7722 50.238 53.3779 50.238ZM61.9959 37.4113H60.8601C60.2339 37.4113 59.7244 36.9018 59.7244 36.2755V35.1398H61.9957V37.4113H61.9959Z" fill="#50B850"/>
<path d="M18.1043 43.8247C16.9623 43.8247 16.0333 44.7537 16.0333 45.8957C16.0333 47.0377 16.9623 47.9667 18.1043 47.9667C19.2463 47.9667 20.1753 47.0377 20.1753 45.8957C20.1753 44.7537 19.2463 43.8247 18.1043 43.8247ZM53.3778 43.8247C52.2358 43.8247 51.3068 44.7537 51.3068 45.8957C51.3068 47.0377 52.2358 47.9667 53.3778 47.9667C54.5198 47.9667 55.4488 47.0377 55.4488 45.8957C55.4488 44.7537 54.5198 43.8247 53.3778 43.8247ZM41.6199 39.5492H26.6554C26.3897 39.5492 26.1348 39.6548 25.9468 39.8427C25.7589 40.0307 25.6533 40.2856 25.6533 40.5514C25.6533 40.8171 25.7589 41.072 25.9468 41.26C26.1348 41.4479 26.3897 41.5535 26.6554 41.5535H41.6199C41.8857 41.5535 42.1406 41.4479 42.3286 41.26C42.5165 41.072 42.6221 40.8171 42.6221 40.5514C42.6221 40.2856 42.5165 40.0307 42.3286 39.8427C42.1406 39.6548 41.8857 39.5492 41.6199 39.5492ZM15.9666 35.2736H3.13982C2.87404 35.2736 2.61915 35.3792 2.43121 35.5671C2.24328 35.7551 2.1377 36.0099 2.1377 36.2757C2.1377 36.5415 2.24328 36.7964 2.43121 36.9843C2.61915 37.1723 2.87404 37.2779 3.13982 37.2779H15.9666C16.2324 37.2779 16.4872 37.1723 16.6752 36.9843C16.8631 36.7964 16.9687 36.5415 16.9687 36.2757C16.9687 36.0099 16.8631 35.7551 16.6752 35.5671C16.4872 35.3792 16.2324 35.2736 15.9666 35.2736ZM34.8463 21.6714C34.6584 21.4835 34.4035 21.3779 34.1377 21.3779C33.872 21.378 33.6171 21.4836 33.4292 21.6715L24.5177 30.5829L19.8818 25.947C19.7888 25.8539 19.6783 25.7801 19.5567 25.7297C19.4352 25.6794 19.3049 25.6535 19.1733 25.6535C19.0417 25.6535 18.9114 25.6794 18.7898 25.7297C18.6682 25.7801 18.5577 25.8539 18.4647 25.947C18.3716 26.04 18.2978 26.1505 18.2475 26.2721C18.1971 26.3936 18.1712 26.5239 18.1712 26.6555C18.1712 26.7871 18.1971 26.9174 18.2475 27.039C18.2978 27.1606 18.3716 27.2711 18.4647 27.3641L23.8092 32.7086C24.0048 32.9044 24.2613 33.0021 24.5177 33.0021C24.7741 33.0021 25.0307 32.9044 25.2262 32.7086L34.8462 23.0886C35.0341 22.9007 35.1397 22.6458 35.1397 22.38C35.1398 22.1142 35.0342 21.8593 34.8463 21.6714Z" fill="#50B850"/>
</svg>
