<svg width="512" height="512" viewBox="0 0 512 512" fill="none" xmlns="http://www.w3.org/2000/svg">
<g clip-path="url(#clip0_75_998)">
<path d="M442.182 0H69.8182C31.2587 0 0 31.2587 0 69.8182V442.182C0 480.741 31.2587 512 69.8182 512H442.182C480.741 512 512 480.741 512 442.182V69.8182C512 31.2587 480.741 0 442.182 0Z" fill="#25D366"/>
<path d="M368.873 143.127C342.238 116.227 306.867 99.7298 269.141 96.6116C231.414 93.4934 193.814 103.96 163.125 126.122C132.435 148.284 110.675 180.684 101.77 217.478C92.865 254.271 97.4011 293.035 114.56 326.778L97.7163 408.553C97.5416 409.367 97.5366 410.208 97.7018 411.024C97.867 411.84 98.1988 412.613 98.6763 413.295C99.376 414.329 100.375 415.126 101.539 415.578C102.703 416.031 103.978 416.117 105.193 415.826L185.338 396.829C218.987 413.554 257.477 417.798 293.961 408.807C330.445 399.816 362.556 378.173 384.58 347.728C406.605 317.284 417.114 280.013 414.237 242.548C411.361 205.083 395.286 169.853 368.873 143.127ZM343.884 342.575C325.455 360.951 301.725 373.082 276.037 377.257C250.349 381.432 223.998 377.442 200.698 365.847L189.527 360.32L140.393 371.956L140.538 371.346L150.72 321.891L145.251 311.098C133.346 287.717 129.146 261.168 133.253 235.254C137.361 209.34 149.565 185.39 168.116 166.836C191.427 143.533 223.039 130.442 256 130.442C288.961 130.442 320.573 143.533 343.884 166.836C344.082 167.064 344.296 167.278 344.524 167.476C367.545 190.84 380.397 222.357 380.277 255.157C380.157 287.957 367.076 319.38 343.884 342.575Z" fill="white"/>
<path d="M339.52 306.298C333.498 315.782 323.985 327.389 312.029 330.269C291.084 335.331 258.938 330.444 218.938 293.149L218.444 292.713C183.273 260.102 174.138 232.96 176.349 211.433C177.571 199.215 187.753 188.16 196.335 180.945C197.691 179.788 199.3 178.963 201.033 178.538C202.765 178.113 204.573 178.099 206.311 178.498C208.05 178.897 209.671 179.697 211.045 180.834C212.42 181.971 213.509 183.414 214.225 185.047L227.171 214.138C228.012 216.024 228.324 218.104 228.073 220.154C227.822 222.204 227.017 224.147 225.745 225.775L219.2 234.269C217.796 236.023 216.948 238.157 216.767 240.397C216.585 242.636 217.078 244.879 218.182 246.836C221.847 253.265 230.633 262.72 240.378 271.476C251.316 281.367 263.447 290.415 271.127 293.498C273.182 294.338 275.442 294.543 277.614 294.086C279.787 293.63 281.773 292.534 283.316 290.938L290.909 283.287C292.374 281.843 294.196 280.812 296.189 280.301C298.182 279.79 300.275 279.817 302.255 280.378L333.004 289.105C334.7 289.626 336.255 290.527 337.549 291.74C338.843 292.954 339.843 294.447 340.472 296.106C341.101 297.765 341.342 299.546 341.177 301.312C341.012 303.079 340.445 304.784 339.52 306.298Z" fill="white"/>
</g>
<defs>
<clipPath id="clip0_75_998">
<rect width="512" height="512" fill="white"/>
</clipPath>
</defs>
</svg>
